<svg width="18" height="18" viewBox="0 0 18 18" fill="none" xmlns="http://www.w3.org/2000/svg">
<path d="M11.1818 4.22511C11.8952 3.5485 13.0221 3.57839 13.6987 4.29188V4.29188C14.3753 5.00536 14.3455 6.13225 13.632 6.80886L10.7898 9.50409C10.6947 9.5943 10.5445 9.59032 10.4542 9.49519L8.33073 7.25594C8.24052 7.1608 8.2445 7.01055 8.33963 6.92034L11.1818 4.22511Z" fill="#FAFAFA"/>
<path d="M6.74207 13.3423C6.02859 14.0189 4.9017 13.989 4.22509 13.2755V13.2755C3.54848 12.562 3.57838 11.4351 4.29186 10.7585L7.13398 8.06329C7.22912 7.97308 7.37937 7.97707 7.46958 8.0722L9.5931 10.3114C9.68331 10.4066 9.67933 10.5568 9.5842 10.647L6.74207 13.3423Z" fill="#FAFAFA" fill-opacity="0.6"/>
</svg>
