<svg width="729" height="729" viewBox="0 0 729 729" fill="none" xmlns="http://www.w3.org/2000/svg">
<path d="M614.543 300.446C619.02 285.168 618.366 268.843 612.679 253.972C606.993 239.101 596.588 226.505 583.059 218.112C555.1 200.896 519.433 178.915 496.292 164.642C479.918 154.581 460.593 150.43 441.532 152.877C396.63 158.672 310.51 174.284 238.282 213.759C222.545 222.269 207.57 232.118 193.523 243.197C174.499 258.345 158.926 274.995 146.981 292.994C122.82 329.403 113.217 371.812 118.438 419.043C125.454 482.494 139.764 519.065 163.472 534.134C188.992 550.354 222.272 539.066 257.507 527.112C299.375 512.909 346.831 496.812 389.37 525.022C413.612 541.096 438.557 544.624 463.506 535.496C474.371 531.523 484.9 525.285 495.041 517.21C548.166 474.909 590.563 382.205 614.543 300.446ZM239.589 216.151C311.423 176.89 397.162 161.348 441.875 155.582C460.317 153.214 479.013 157.231 494.854 166.963C517.999 181.232 553.667 203.219 581.625 220.434C594.647 228.513 604.662 240.638 610.135 254.952C615.607 269.265 616.236 284.979 611.925 299.684C583.557 396.412 529.422 508.481 462.571 532.938C438.485 541.749 414.362 538.32 390.88 522.75C347.226 493.802 299.097 510.128 256.636 524.53C222.037 536.267 189.356 547.353 164.941 531.836C153.98 524.868 145.214 513.09 138.142 495.831C130.339 476.776 124.78 451.561 121.15 418.74C113.412 348.745 138.183 290.669 194.882 245.523C208.913 234.467 223.871 224.64 239.589 216.151ZM521.704 474.979C554.876 433.193 585.324 369.103 605.239 299.142C609.464 284.477 608.775 268.832 603.278 254.594C597.846 240.326 587.841 228.259 574.825 220.278C548.039 203.757 513.895 182.705 491.67 169.021C475.968 159.386 457.453 155.384 439.173 157.675C396.303 162.975 313.971 177.571 244.24 215.77C229.374 223.849 215.224 233.179 201.942 243.66C183.419 258.409 168.285 274.659 156.719 292.248C133.688 327.283 124.54 368.104 129.532 413.58C136.232 474.358 149.93 509.409 172.643 523.886C197.072 539.463 228.926 528.737 262.651 517.384C302.583 503.942 347.846 488.706 388.444 515.448C421.719 537.196 456.383 534.257 490.248 507.288C500.836 498.861 511.347 488.082 521.704 474.979ZM519.568 473.29C489.936 510.765 443.395 548.101 389.946 513.169C348.242 485.699 302.31 501.16 261.787 514.8C228.699 525.938 197.446 536.458 174.113 521.586C163.629 514.905 155.246 503.621 148.486 487.096C141.02 468.844 135.708 444.699 132.244 413.276C124.812 345.564 148.687 289.471 203.313 245.977C216.575 235.522 230.704 226.215 245.545 218.157C314.88 180.179 396.83 165.658 439.509 160.378C457.173 158.164 475.065 162.031 490.238 171.342C512.463 185.027 546.608 206.077 573.392 222.599C598.837 238.293 610.856 269.464 602.62 298.405C582.797 368.029 552.527 431.772 519.569 473.292L519.568 473.29ZM515.606 466.479C548.449 425.427 577.73 363.962 595.939 297.838C599.853 283.79 599.117 268.853 593.839 255.259C588.613 241.621 579.038 230.087 566.596 222.439C538.878 205.312 506.913 185.603 487.054 173.399C472.013 164.21 454.313 160.359 436.814 162.471C395.712 167.422 316.813 181.193 250.196 217.778C236.2 225.427 222.871 234.239 210.351 244.12C192.327 258.472 177.637 274.317 166.459 291.497C144.553 325.158 135.867 364.391 140.629 408.114C147.019 466.281 160.113 499.843 181.836 513.738C205.176 528.668 235.6 518.523 267.812 507.78C305.781 495.121 348.817 480.773 387.521 505.876C419.37 526.532 452.654 523.548 485.26 497.584C495.465 489.461 505.581 479.093 515.609 466.48L515.606 466.479ZM251.509 220.165C317.72 183.803 396.23 170.106 437.135 165.175C454.024 163.137 471.107 166.853 485.623 175.723C505.481 187.926 537.444 207.633 565.16 224.76C589.349 239.708 600.929 269.462 593.311 297.123C575.198 362.902 546.101 424.01 513.475 464.785C484.902 500.781 440.118 536.735 389.01 503.589C349.206 477.774 305.507 492.341 266.956 505.197C235.381 515.726 205.554 525.672 183.312 511.443C173.299 505.038 165.297 494.244 158.844 478.438C151.715 460.974 146.645 437.874 143.342 407.814C136.216 342.385 159.198 288.272 211.743 246.432C224.24 236.578 237.543 227.792 251.512 220.166L251.509 220.165ZM509.512 457.978C542.096 417.352 570.206 358.506 586.64 296.538C590.246 283.11 589.462 268.88 584.404 255.929C579.384 242.922 570.238 231.919 558.367 224.605C532.634 208.673 502.117 189.856 482.437 177.779C468.063 169.027 451.177 165.328 434.461 167.271C395.253 171.805 319.954 184.658 256.16 219.792C243.027 227.01 230.516 235.304 218.755 244.591C201.235 258.542 186.991 273.979 176.199 290.753C155.427 323.034 147.194 360.682 151.728 402.655C157.806 458.177 170.292 490.239 191.025 503.548C213.275 517.835 242.274 508.261 272.973 498.127C308.989 486.236 349.815 472.757 386.599 496.31C417.011 515.781 448.971 512.67 480.436 487.616C490.195 479.84 499.888 469.961 509.512 457.978ZM257.473 222.174C320.856 187.268 395.76 174.489 434.768 169.976C450.879 168.102 467.154 171.667 481.006 180.104C500.685 192.177 531.197 210.99 556.931 226.921C580.232 241.349 591.113 269.046 584.007 295.841C567.665 357.457 539.739 415.93 507.389 456.271C479.8 490.675 436.706 525.147 388.072 494.007C350.199 469.753 308.716 483.448 272.121 495.532C242.054 505.457 213.656 514.835 192.499 501.248C182.963 495.127 175.341 484.82 169.198 469.74C162.405 453.072 157.58 431.028 154.44 402.35C147.615 339.199 169.695 287.07 220.158 246.891C231.892 237.634 244.373 229.367 257.473 222.174ZM503.414 449.472C535.621 409.586 562.566 353.367 577.341 295.231C584.113 268.578 573.183 241.066 550.138 226.768C526.341 212 496.601 193.655 477.819 182.157C464.113 173.838 448.039 170.289 432.104 172.065C394.622 176.206 322.697 188.166 262.119 221.797C249.787 228.583 238.037 236.379 226.99 245.103C210.043 258.598 196.293 273.599 185.91 289.953C166.284 320.861 158.516 356.939 162.824 397.183C168.59 450.065 180.467 480.622 200.207 493.346C221.371 506.992 248.943 497.987 278.134 488.457C312.202 477.334 350.817 464.725 385.678 486.729C414.695 505.044 445.299 501.856 475.535 477.78C484.881 470.336 494.175 460.901 503.415 449.475L503.414 449.472ZM263.436 224.178C323.595 190.777 395.116 178.887 432.396 174.773C447.73 173.063 463.2 176.478 476.389 184.485C495.167 195.979 524.901 214.319 548.697 229.086C570.726 242.758 581.177 269.071 574.696 294.566C560.016 352.333 533.261 408.173 501.293 447.768C493.406 457.534 484.214 467.313 473.968 475.472C449.752 494.754 419.664 504.961 387.133 484.425C351.189 461.739 311.929 474.557 277.29 485.867C248.728 495.191 221.758 503.998 201.682 491.056C182.948 478.98 171.121 448.176 165.529 396.89C159.008 335.955 180.104 285.847 228.32 247.457C239.364 238.743 251.11 230.958 263.438 224.181L263.436 224.178ZM497.317 440.969C529.109 401.887 554.885 348.29 568.04 293.921C574.172 268.583 563.666 242.467 541.907 228.929C519.522 215.004 491.268 197.57 473.198 186.535C460.16 178.649 444.897 175.251 429.745 176.861C394.111 180.587 325.719 191.64 268.074 223.805C256.582 230.162 245.628 237.448 235.324 245.59C218.903 258.665 205.62 273.25 195.637 289.191C177.145 318.72 169.837 353.216 173.913 391.714C179.368 441.956 190.639 471.011 209.385 483.151C229.462 496.154 255.613 487.72 283.301 478.792C315.418 468.436 351.818 456.697 384.752 477.155C412.374 494.317 441.627 491.047 470.632 467.952C479.569 460.836 488.464 451.843 497.318 440.974L497.317 440.969ZM269.402 226.189C326.621 194.264 394.597 183.281 430.026 179.575C444.583 178.028 459.246 181.291 471.774 188.865C489.841 199.897 518.083 217.326 540.465 231.25C561.227 244.163 571.243 269.096 565.39 293.288C552.327 347.276 526.746 400.477 495.203 439.258C469.739 470.565 430.157 502.15 386.194 474.843C352.189 453.72 315.149 465.663 282.468 476.201C255.417 484.926 229.864 493.167 210.87 480.866C193.113 469.367 181.912 440.109 176.626 391.426C170.413 332.75 190.585 284.635 236.663 247.945C246.965 239.813 257.914 232.537 269.402 226.189ZM491.219 432.474C522.548 394.267 547.158 343.292 558.741 292.618C564.23 268.596 554.16 243.874 533.679 231.102C512.587 217.944 485.82 201.419 468.583 190.92C456.213 183.469 441.763 180.22 427.394 181.659C393.604 184.979 328.747 195.129 274.036 225.819C263.378 231.749 253.216 238.529 243.649 246.094C227.763 258.743 214.947 272.911 205.372 288.439C188.013 316.587 181.165 349.495 185.013 386.256C190.151 433.855 200.818 461.405 218.573 472.961C237.566 485.324 262.297 477.464 288.479 469.136C318.644 459.545 352.832 448.674 383.835 467.589C410.062 483.588 437.957 480.241 465.736 458.119C474.256 451.331 482.75 442.783 491.219 432.474ZM489.112 430.749C464.709 460.509 426.882 490.657 385.256 465.26C353.191 445.698 318.371 456.77 287.653 466.536C262.104 474.66 237.971 482.334 220.059 470.675C203.276 459.75 192.698 432.039 187.719 385.96C181.812 329.541 201.059 283.419 245.002 248.431C254.562 240.881 264.716 234.114 275.365 228.196C329.641 197.751 394.074 187.671 427.65 184.374C441.431 182.989 455.29 186.101 467.155 193.245C484.385 203.743 511.145 220.258 532.23 233.411C551.728 245.573 561.313 269.123 556.081 292.016C544.591 342.29 520.18 392.859 489.112 430.749ZM485.122 423.974C515.939 386.714 539.385 338.359 549.439 291.306C554.292 268.603 544.652 245.277 525.448 233.263C505.332 220.678 480.62 205.418 463.963 195.297C452.282 188.223 438.625 185.123 425.035 186.46C399.313 188.805 333.687 197.534 279.99 227.832C270.136 233.349 260.737 239.639 251.879 246.643C236.534 258.862 224.2 272.594 215.04 287.689C198.785 314.472 192.413 345.796 196.1 380.787C200.838 425.738 210.839 451.789 227.575 462.774C245.477 474.523 268.83 467.219 293.555 459.489C321.811 450.655 353.835 440.645 382.908 458.02C407.74 472.864 434.286 469.434 460.836 448.291C469.746 441.043 477.884 432.894 485.122 423.974ZM281.329 230.204C334.565 200.165 399.733 191.504 425.281 189.172C438.289 187.89 451.362 190.856 462.543 197.625C479.194 207.743 503.891 222.994 524 235.575C542.234 246.984 551.388 269.153 546.775 290.741C536.808 337.378 513.571 385.306 483.021 422.239C475.932 430.955 467.968 438.921 459.255 446.013C438.093 462.863 412.001 472.229 384.314 455.678C354.197 437.673 321.554 447.88 292.749 456.885C268.658 464.418 245.903 471.532 229.078 460.49C213.295 450.134 203.395 423.968 198.815 380.497C193.114 326.4 211.399 282.295 253.241 248.982C262.092 241.99 271.484 235.711 281.329 230.204ZM479.022 415.476C509.73 378.708 531.435 334.144 540.142 289.994C544.426 268.276 535.427 246.858 517.218 235.427C498.385 223.605 475.126 209.237 459.345 199.676C448.332 193.038 435.488 190.088 422.682 191.255C398.44 193.275 336.585 201.081 285.948 229.839C276.915 234.933 268.292 240.724 260.159 247.158C245.358 258.944 233.504 272.254 224.765 286.93C209.64 312.33 203.732 342.068 207.197 375.32C211.609 417.629 221 442.178 236.74 452.583C253.561 463.696 275.505 456.961 298.739 449.833C325.046 441.758 354.863 432.608 381.992 448.451C405.428 462.137 430.624 458.621 455.948 438.456C464.392 431.591 472.122 423.892 479.022 415.476ZM287.293 232.211C337.458 203.719 398.843 195.978 422.909 193.973C435.139 192.855 447.407 195.669 457.929 202.004C473.7 211.559 496.945 225.919 515.768 237.734C533.015 248.559 541.531 268.868 537.466 289.468C528.973 332.541 506.907 377.832 476.932 413.725C470.175 421.947 462.611 429.472 454.354 436.187C434.211 452.227 409.446 461.315 383.375 446.088C355.212 429.644 324.786 438.978 297.944 447.22C275.345 454.155 253.999 460.706 238.251 450.301C223.445 440.517 214.173 415.894 209.912 375.028C204.504 323.191 221.856 281.082 261.545 249.48C269.665 243.063 278.274 237.289 287.293 232.211ZM472.925 406.976C503.011 371.332 523.582 329.32 530.843 288.679C534.485 268.303 525.906 248.252 508.99 237.591C491.379 226.494 469.569 213.015 454.725 204.055C444.38 197.856 432.352 195.057 420.333 196.054C397.565 197.751 339.47 204.639 291.907 231.852C283.684 236.525 275.83 241.819 268.414 247.689C254.159 259.039 242.798 271.92 234.487 286.179C220.494 310.189 215.045 338.339 218.293 369.854C222.383 409.521 231.156 432.569 245.906 442.396C261.647 452.877 282.185 446.707 303.93 440.175C328.285 432.858 355.893 424.565 381.076 438.88C403.119 451.409 426.959 447.812 451.055 428.623C459.035 422.14 466.36 414.889 472.923 406.975L472.925 406.976ZM293.259 234.219C340.339 207.283 397.95 200.456 420.531 198.773C431.986 197.82 443.45 200.483 453.312 206.388C468.145 215.343 489.936 228.809 507.532 239.901C523.506 249.967 531.603 268.927 528.157 288.207C520.979 328.381 500.623 369.938 470.841 405.221C464.416 412.952 457.253 420.037 449.451 426.375C430.322 441.607 406.89 450.414 382.429 436.51C356.231 421.619 328.03 430.09 303.15 437.566C282.039 443.908 262.098 449.899 247.424 440.127C233.59 430.915 224.947 407.834 221.005 369.571C215.896 319.988 232.304 279.881 269.835 249.997C277.229 244.148 285.06 238.874 293.258 234.219L293.259 234.219ZM466.824 398.476C487.633 374.114 514.016 335.062 521.544 287.361C524.547 268.334 516.389 249.648 500.761 239.757C484.394 229.398 464.038 216.81 450.106 208.433C440.429 202.671 429.214 200.024 417.981 200.851C396.684 202.228 342.348 208.202 297.863 233.862C290.442 238.117 283.35 242.92 276.644 248.231C262.948 259.137 252.082 271.589 244.211 285.43C231.35 308.044 226.363 334.61 229.389 364.388C233.154 401.414 241.317 422.966 255.077 432.213C269.742 442.066 288.878 436.459 309.136 430.523C331.54 423.959 356.934 416.52 380.165 429.315C400.806 440.684 423.301 437.002 446.168 418.794C453.684 412.693 460.6 405.89 466.824 398.476ZM299.223 236.225C343.21 210.851 397.048 204.936 418.155 203.571C428.832 202.781 439.494 205.294 448.695 210.769C462.613 219.136 482.949 231.712 499.299 242.061C514.009 251.37 521.684 268.987 518.85 286.939C511.422 334.011 485.333 372.618 464.749 396.711C458.658 403.948 451.895 410.592 444.551 416.554C426.437 430.978 404.33 439.507 381.48 426.924C357.259 413.583 331.287 421.192 308.371 427.906C287.895 433.903 270.205 439.088 256.6 429.948C243.74 421.307 235.727 399.769 232.102 364.107C227.288 316.766 242.749 278.663 278.115 250.505C284.786 245.227 291.841 240.454 299.223 236.225ZM460.725 389.978C490.237 355.878 507.57 320.908 512.246 286.038C514.615 268.364 506.877 251.047 492.534 241.923C477.395 232.292 458.488 220.594 445.487 212.813C436.479 207.487 426.078 204.991 415.634 205.65C395.808 206.711 345.215 211.777 303.822 235.876C297.192 239.714 290.849 244.029 284.844 248.786C271.711 259.244 261.351 271.262 253.932 284.681C242.202 305.893 237.677 330.87 240.485 358.921C243.925 393.307 251.477 413.362 264.247 422.031C277.84 431.259 295.579 426.215 314.361 420.872C334.81 415.057 357.982 408.465 379.253 419.748C398.497 429.956 419.638 426.192 441.284 408.956C448.333 403.24 454.841 396.888 460.725 389.978ZM305.188 238.23C346.068 214.43 396.145 209.42 415.776 208.371C425.677 207.742 435.539 210.104 444.081 215.15C457.066 222.923 475.949 234.606 491.066 244.222C504.519 252.779 511.771 269.054 509.543 285.679C504.942 320.014 487.821 354.505 458.663 388.197C439.564 410.265 410.506 433.233 380.536 417.335C358.3 405.538 334.563 412.291 313.621 418.249C294.68 423.635 278.325 428.287 265.784 419.774C253.894 411.704 246.508 391.708 243.198 358.644C238.682 313.544 253.19 277.442 286.367 251.026C292.322 246.31 298.613 242.034 305.188 238.23ZM454.623 381.483C483.721 348.352 499.527 316.699 502.946 284.711C504.716 268.145 497.574 252.577 484.306 244.09C470.402 235.192 452.945 224.382 440.869 217.192C432.529 212.3 422.941 209.956 413.285 210.448C394.917 211.193 348.062 215.359 309.773 237.889C303.86 241.348 298.198 245.218 292.829 249.472C261.139 274.706 247.27 309.6 251.577 353.45C254.698 385.199 261.637 403.755 273.422 411.853C285.946 420.456 302.298 415.97 319.607 411.219C338.097 406.147 359.053 400.395 378.345 410.179C396.193 419.227 415.984 415.374 436.406 399.113C442.987 393.785 449.083 387.885 454.623 381.483ZM452.575 379.684C434.534 400.224 407.227 421.767 379.582 407.745C359.35 397.488 337.858 403.384 318.89 408.59C301.484 413.367 286.451 417.492 274.967 409.604C264.047 402.102 257.283 383.645 254.29 353.18C250.079 310.313 263.625 276.213 294.601 251.552C299.846 247.396 305.378 243.615 311.155 240.236C348.908 218.02 395.232 213.907 413.394 213.17C422.519 212.701 431.582 214.912 439.465 219.531C451.521 226.709 468.95 237.502 482.831 246.384C495.225 254.314 501.894 268.89 500.234 284.426C496.877 315.834 481.288 346.995 452.575 379.684ZM448.522 372.987C468.034 351.14 490.797 321.213 493.647 283.38C494.791 268.199 488.058 253.975 476.079 246.257C463.398 238.086 447.391 228.165 436.248 221.571C428.581 217.115 419.808 214.922 410.946 215.246C394.035 215.682 350.906 218.953 315.732 239.901C310.612 242.935 305.704 246.313 301.04 250.01C271.574 273.473 258.678 306.35 262.677 347.984C265.474 377.093 271.806 394.159 282.605 401.682C294.071 409.671 309.039 405.738 324.89 401.575C341.413 397.235 360.142 392.317 377.446 400.617C393.895 408.506 412.337 404.564 431.542 389.271C437.649 384.329 443.33 378.882 448.522 372.987ZM317.122 242.241C351.743 221.621 394.315 218.399 411.009 217.969C419.359 217.657 427.626 219.718 434.852 223.913C445.969 230.493 461.942 240.391 474.595 248.547C485.737 255.724 491.993 268.993 490.927 283.174C488.14 320.194 465.716 349.648 446.491 371.17C429.505 390.185 403.946 410.3 378.628 398.156C360.42 389.422 341.177 394.477 324.198 398.936C308.315 403.108 294.597 406.711 284.165 399.444C274.208 392.506 268.066 375.587 265.388 347.718C261.483 307.066 274.058 274.979 302.805 252.091C307.35 248.489 312.134 245.199 317.122 242.241ZM442.418 364.49C463.439 341.406 483.067 315.438 484.346 282.034C484.882 268.044 478.712 255.48 467.851 248.422C456.192 240.847 441.971 232.024 431.628 225.947C424.632 221.923 416.672 219.881 408.603 220.042C393.146 220.17 353.729 222.555 321.683 241.913C317.342 244.525 313.174 247.414 309.205 250.563C281.997 272.228 270.08 303.095 273.767 342.517C276.242 368.993 281.969 384.564 291.785 391.518C302.201 398.898 315.801 395.515 330.201 391.939C345.463 388.143 361.247 384.218 376.544 391.058C391.593 397.78 408.684 393.752 426.674 379.426C432.31 374.873 437.574 369.878 442.418 364.49ZM323.091 244.246C354.558 225.235 393.389 222.893 408.622 222.767C416.196 222.611 423.67 224.522 430.239 228.296C440.555 234.358 454.735 243.154 466.362 250.708C476.415 257.235 482.12 268.911 481.62 281.935C480.375 314.463 461.074 339.956 440.404 362.656C435.662 367.924 430.51 372.808 424.997 377.263C410.915 388.477 394.079 395.904 377.663 388.564C361.508 381.344 344.529 385.566 329.548 389.29C315.173 392.864 302.76 395.949 293.366 389.295C284.369 382.92 278.845 367.533 276.482 342.26C272.887 303.814 284.478 273.74 310.97 252.647C314.825 249.589 318.874 246.782 323.091 244.246ZM436.312 355.996C456.007 334.844 475.222 311.604 475.042 280.683C474.969 268.124 469.207 256.874 459.625 250.587C449.198 243.746 436.394 235.79 427.005 230.324C420.685 226.731 413.54 224.841 406.27 224.838C392.258 224.662 356.544 226.168 327.638 243.926C324.017 246.142 320.535 248.577 317.211 251.216C306.447 259.787 298.269 270.011 292.819 281.727C285.622 297.202 282.947 315.816 284.864 337.045C287.019 360.888 292.14 374.971 300.985 381.366C310.356 388.14 322.606 385.303 335.575 382.298C348.762 379.243 362.396 376.086 375.661 381.493C389.424 387.105 404.779 383.213 421.467 369.925C426.752 365.655 431.714 360.999 436.312 355.996ZM329.057 246.25C357.355 228.867 392.452 227.393 406.227 227.567C413.025 227.563 419.709 229.325 425.622 232.679C434.976 238.127 447.733 246.05 458.122 252.869C466.941 258.656 472.245 269.06 472.313 280.704C472.488 310.651 454.44 332.53 434.315 354.144C429.805 359.052 424.939 363.621 419.754 367.811C403.91 380.427 389.47 384.183 376.687 378.971C362.623 373.237 347.925 376.642 334.961 379.643C322.077 382.628 310.95 385.207 302.581 379.157C294.535 373.341 289.627 359.484 287.577 336.797C284.265 300.165 294.462 272.788 318.697 253.49C322.001 250.869 325.462 248.451 329.059 246.249L329.057 246.25ZM430.206 347.506C448.526 328.337 467.474 308.515 465.737 279.318C465.066 268.044 459.84 258.363 451.399 252.756C442.488 246.835 431.096 239.746 422.381 234.698C416.736 231.542 410.408 229.805 403.942 229.637C391.367 229.164 359.339 229.798 333.587 245.94C330.632 247.787 327.783 249.799 325.053 251.965C302.423 269.985 292.892 296.141 295.957 331.576C297.793 352.792 302.318 365.391 310.191 371.229C318.539 377.415 329.459 375.111 341.024 372.673C352.114 370.332 363.583 367.912 374.78 371.934C387.122 376.369 401.166 372.36 416.669 360.016C421.457 356.155 425.98 351.975 430.206 347.506ZM428.236 345.623C408.115 366.677 390.442 374.666 375.706 369.371C363.78 365.086 351.392 367.701 340.462 370.006C329.041 372.414 319.176 374.495 311.814 369.038C304.711 363.773 300.41 351.441 298.671 331.337C295.342 292.85 307.233 265.67 335.031 248.252C360.14 232.512 391.51 231.898 403.832 232.364C409.854 232.514 415.749 234.126 421.01 237.06C429.682 242.08 441.017 249.133 449.886 255.027C457.61 260.157 462.395 269.073 463.014 279.486C464.558 305.488 449.574 323.3 428.236 345.623ZM424.096 339.015L425.972 337.117C444.014 318.856 459.597 303.085 456.425 277.938C455.698 272.194 453.013 261.565 443.176 254.925C435.309 249.614 425.571 243.539 417.755 239.075C412.797 236.328 407.279 234.743 401.619 234.439C390.476 233.671 362.12 233.448 339.533 247.959C337.215 249.443 334.976 251.044 332.821 252.757C312.521 268.921 304.306 292.468 307.052 326.103C308.569 344.702 312.499 355.827 319.418 361.113C326.767 366.731 336.398 364.945 346.591 363.055C355.563 361.391 364.838 359.67 373.924 362.378C384.932 365.66 397.341 361.73 411.597 350.377C415.985 346.842 420.159 343.048 424.096 339.015ZM341.004 250.251C362.903 236.18 390.553 236.407 401.421 237.16C406.673 237.436 411.793 238.901 416.396 241.444C424.157 245.878 433.829 251.908 441.644 257.185C450.593 263.225 453.047 272.997 453.715 278.284C456.722 302.118 441.573 317.45 424.031 335.206L422.156 337.107C403.273 356.252 387.753 363.666 374.702 359.774C364.989 356.877 354.949 358.739 346.092 360.383C336.094 362.235 327.46 363.837 321.073 358.957C314.895 354.235 311.198 343.416 309.768 325.885C307.104 293.231 315.015 270.427 334.586 254.845C336.647 253.206 338.788 251.673 341.004 250.251ZM417.984 330.531C419.637 328.917 421.276 327.345 422.887 325.802C438.348 310.979 451.701 298.177 447.102 276.534C445.325 268.174 441.012 261.268 434.958 257.1C428.263 252.483 419.899 247.255 413.131 243.455C408.855 241.133 404.154 239.702 399.31 239.246C389.59 238.185 364.891 237.113 345.481 249.982C343.774 251.112 342.152 252.291 340.612 253.517C322.711 267.771 315.753 288.768 318.147 320.637C319.349 336.64 322.696 346.307 328.679 351.057C335.074 356.133 343.468 354.838 352.354 353.466C359.156 352.418 366.189 351.331 373.094 352.837C384.528 355.331 396.498 348.753 406.609 340.702C410.768 337.381 414.619 333.815 417.984 330.531ZM346.982 252.251C365.651 239.874 389.585 240.926 399.009 241.952C403.487 242.369 407.835 243.687 411.79 245.828C418.491 249.593 426.772 254.769 433.405 259.341C440.799 264.438 443.488 272.661 444.434 277.106C448.721 297.262 436.486 308.99 420.999 323.838C419.383 325.386 417.738 326.965 416.081 328.582C412.756 331.826 408.949 335.358 404.846 338.625C395.268 346.252 384.078 352.438 373.676 350.171C366.275 348.558 358.987 349.682 351.938 350.769C343.297 352.103 335.835 353.254 330.374 348.918C325.099 344.731 321.988 335.411 320.862 320.424C318.52 289.215 324.927 269.473 342.168 255.746C343.688 254.536 345.292 253.371 346.982 252.251ZM411.866 322.048C414.274 319.81 416.666 317.699 418.977 315.658C432.894 303.371 443.887 293.669 437.759 275.1C436.184 270.328 432.993 263.707 426.739 259.272C420.871 255.131 414.783 251.31 408.502 247.827C404.915 245.926 401.031 244.649 397.016 244.053C388.713 242.709 367.653 240.791 351.415 252.006C350.299 252.778 349.237 253.566 348.221 254.376C330.19 268.733 327.523 289.164 329.237 315.158C330.126 328.627 332.912 336.871 338.009 341.099C343.533 345.681 350.81 344.81 358.513 343.888C363.034 343.347 367.709 342.788 372.303 343.282C381.928 344.317 392.078 338.569 401.58 331.003C405.119 328.183 408.566 325.114 411.866 322.048ZM417.175 313.614C414.849 315.669 412.446 317.791 410.011 320.054C398.308 330.93 384.715 341.873 372.602 340.57C367.699 340.041 362.867 340.618 358.194 341.178C350.782 342.065 344.378 342.831 339.755 338.996C335.335 335.329 332.783 327.469 331.961 314.971C330.301 289.827 332.816 270.122 349.977 256.46C350.927 255.703 351.923 254.965 352.966 254.244C368.384 243.594 388.6 245.449 396.573 246.742C400.281 247.29 403.869 248.466 407.183 250.218C413.374 253.649 419.374 257.413 425.156 261.495C430.809 265.506 433.721 271.575 435.167 275.958C440.734 292.818 430.852 301.541 417.175 313.614ZM405.389 313.88L405.739 313.572C408.678 311.009 411.598 308.719 414.424 306.506C426.646 296.918 436.304 289.346 428.38 273.621C426.097 268.848 422.724 264.679 418.533 261.45C413.876 258.013 408.974 254.92 403.868 252.196C400.985 250.697 397.919 249.578 394.748 248.868C386.191 246.843 369.954 244.822 357.349 254.032C356.798 254.434 356.267 254.84 355.748 255.254C339.514 268.18 339.102 286.056 340.331 309.671C340.914 320.85 343.221 327.789 347.589 331.503C352.518 335.693 359.041 334.981 365.948 334.225C367.8 334.022 369.716 333.813 371.597 333.705C379.968 333.221 388.763 327.546 396.474 321.406C399.67 318.866 402.676 316.244 405.389 313.88ZM403.947 311.521L403.595 311.828C394.628 319.648 382.347 330.358 371.445 330.988C369.492 331.102 367.542 331.315 365.656 331.518C359.075 332.238 353.391 332.858 349.355 329.431C345.645 326.275 343.584 319.766 343.051 309.529C341.827 286.04 342.184 269.534 357.421 257.403C357.914 257.01 358.426 256.621 358.951 256.235C370.671 247.671 386.01 249.608 394.112 251.526C397.056 252.185 399.903 253.221 402.581 254.61C407.566 257.272 412.352 260.293 416.899 263.649C420.749 266.624 423.844 270.464 425.937 274.856C432.858 288.589 424.854 294.868 412.733 304.365C411.69 305.183 410.634 306.012 409.567 306.861C407.726 308.33 405.846 309.865 403.948 311.519L403.947 311.521ZM423.243 283.721C423.79 280.236 422.375 276.431 418.923 272.097C412.718 264.303 402.601 257.258 392.52 253.71C380.765 249.571 370.375 250.412 363.262 256.077C349.799 266.796 350.422 280.782 351.143 296.974C351.248 299.312 351.356 301.728 351.421 304.174C351.691 314.181 353.913 320.488 358.22 323.464C361.444 325.689 365.758 325.891 371.035 324.061C379.794 321.022 389.861 312.929 397.208 307.023C398.039 306.353 398.837 305.711 399.594 305.109C402.844 302.521 406.11 300.334 409.269 298.218C411.9 296.457 414.395 294.785 416.535 293.081C420.105 290.238 422.685 287.306 423.245 283.719L423.243 283.721ZM391.609 256.28C401.236 259.669 410.88 266.379 416.787 273.797C419.737 277.503 420.968 280.614 420.548 283.306C420.118 286.049 418.017 288.433 414.939 290.883C412.903 292.505 410.441 294.154 407.753 295.955C404.698 298.001 401.236 300.32 397.898 302.978C397.138 303.583 396.336 304.228 395.501 304.899C388.312 310.681 378.457 318.602 370.145 321.484C365.673 323.036 362.28 322.949 359.773 321.219C356.284 318.807 354.389 313.046 354.149 304.098C354.081 301.624 353.974 299.196 353.87 296.847C353.154 280.764 352.587 268.06 364.959 258.208C371.312 253.149 380.778 252.463 391.611 256.278L391.609 256.28Z" fill="url(#paint0_linear_258_3833)"/>
<defs>
<linearGradient id="paint0_linear_258_3833" x1="489.749" y1="521.424" x2="239.227" y2="206.804" gradientUnits="userSpaceOnUse">
<stop stop-color="#42C3AA"/>
<stop offset="1" stop-color="#004134"/>
</linearGradient>
</defs>
</svg>
