<svg width="40" height="40" viewBox="0 0 40 40" fill="none" xmlns="http://www.w3.org/2000/svg">
<rect width="40" height="40" rx="4" fill="#E1E4E7"/>
<rect width="40" height="40" rx="4" fill="black"/>
<path d="M17.5906 33.125C17.2906 32.875 17.1406 32.5667 17.1406 32.2C17.1406 32.0667 17.1823 31.9167 17.2656 31.75C17.3656 31.5833 17.4823 31.4333 17.6156 31.3C17.799 31.1 18.024 30.85 18.2906 30.55C18.5573 30.2667 18.824 29.9333 19.0906 29.55C19.3573 29.1833 19.599 28.775 19.8156 28.325C20.049 27.8917 20.224 27.425 20.3406 26.925C19.8073 26.925 19.324 26.8333 18.8906 26.65C18.4573 26.45 18.0823 26.1833 17.7656 25.85C17.4656 25.5167 17.224 25.125 17.0406 24.675C16.874 24.225 16.7906 23.7333 16.7906 23.2C16.7906 22.7333 16.874 22.3 17.0406 21.9C17.224 21.4833 17.474 21.125 17.7906 20.825C18.1073 20.5083 18.4906 20.2667 18.9406 20.1C19.3906 19.9167 19.8823 19.825 20.4156 19.825C21.049 19.825 21.599 19.9417 22.0656 20.175C22.549 20.3917 22.9406 20.7 23.2406 21.1C23.5573 21.4833 23.7906 21.9333 23.9406 22.45C24.1073 22.95 24.1906 23.4833 24.1906 24.05C24.1906 24.85 24.0656 25.6917 23.8156 26.575C23.5823 27.4583 23.2323 28.3417 22.7656 29.225C22.299 30.1083 21.7156 30.9667 21.0156 31.8C20.3323 32.6333 19.549 33.4 18.6656 34.1L17.5906 33.125Z" fill="white"/>
<circle cx="4" cy="4" r="3.875" transform="matrix(1 0 0 -1 16 16)" stroke="white" stroke-width="0.25"/>
</svg>
