<svg width="18" height="18" viewBox="0 0 18 18" fill="none" xmlns="http://www.w3.org/2000/svg">
<path opacity="0.48" fill-rule="evenodd" clip-rule="evenodd" d="M10.9604 2.64349C10.9604 1.95049 11.5271 1.38428 12.2201 1.38428C12.9131 1.38428 13.4818 1.95049 13.4818 2.64349C13.4818 3.3365 12.9131 3.9032 12.2201 3.9032C11.5271 3.9032 10.9604 3.3365 10.9604 2.64349ZM6.02734 4.40874C6.35725 3.24629 7.42605 2.39094 8.69247 2.39094C9.95889 2.39094 11.0277 3.24629 11.3576 4.40874H6.02734Z" fill="#FAFAFA"/>
<path fill-rule="evenodd" clip-rule="evenodd" d="M2.13942 3.40088C1.90834 3.40088 1.70403 3.49608 1.5738 3.64258C1.44358 3.78909 1.38379 3.97396 1.38379 4.15601C1.38379 4.33807 1.44358 4.52294 1.5738 4.66945C1.70403 4.81595 1.90834 4.91164 2.13942 4.91164H3.53302L4.92613 12.3665C4.99268 12.7223 5.30818 12.9769 5.667 12.9769H13.7323C14.0782 12.9769 14.3882 12.7407 14.4672 12.3985L15.98 5.84547C16.0881 5.37725 15.7295 4.91312 15.245 4.91312H5.07726L4.8966 4.00932C4.82656 3.65789 4.51457 3.40184 4.15623 3.40088H2.13942ZM7.1794 13.4809C6.48639 13.4809 5.92018 14.0476 5.92018 14.7406C5.92017 15.4336 6.48639 16.0018 7.1794 16.0018C7.8724 16.0018 8.43911 15.4336 8.4391 14.7406C8.4391 14.0476 7.8724 13.4809 7.1794 13.4809ZM10.961 14.7406C10.961 14.0476 11.5277 13.4809 12.2207 13.4809C12.9137 13.4809 13.4824 14.0476 13.4824 14.7406C13.4824 15.4336 12.9137 16.0018 12.2207 16.0018C11.5277 16.0018 10.961 15.4336 10.961 14.7406Z" fill="#FAFAFA"/>
</svg>
