<svg width="18" height="18" viewBox="0 0 18 18" fill="none" xmlns="http://www.w3.org/2000/svg">
<path d="M2.42998 5.46731L8.81998 8.93981C8.93248 8.99981 9.06748 8.99981 9.17998 8.93981L15.57 5.46731C15.6892 5.40844 15.7614 5.28379 15.7532 5.15109C15.745 5.01839 15.658 4.90357 15.5325 4.85981L9.14248 2.24981C9.05118 2.2123 8.94878 2.2123 8.85748 2.24981L2.46748 4.85981C2.34194 4.90357 2.25492 5.01839 2.24672 5.15109C2.23853 5.28379 2.31077 5.40844 2.42998 5.46731Z" fill="#FAFAFA"/>
<path d="M15.5321 7.99516L14.1596 7.41016L9.17959 10.1177C9.06709 10.1777 8.93209 10.1777 8.81959 10.1177L3.83959 7.41016L2.46709 7.99516C2.34862 8.05735 2.27441 8.18011 2.27441 8.31391C2.27441 8.44771 2.34862 8.57047 2.46709 8.63266L8.85709 12.3077C8.96757 12.3752 9.1066 12.3752 9.21709 12.3077L15.6071 8.63266C15.7199 8.55757 15.781 8.42549 15.7652 8.2909C15.7493 8.1563 15.6593 8.04201 15.5321 7.99516Z" fill="#FAFAFA"/>
<path d="M15.5329 11.3249L14.3629 10.8149L9.18037 13.6349C9.06787 13.6949 8.93287 13.6949 8.82037 13.6349L3.63787 10.8149L2.46787 11.3249C2.34602 11.3881 2.26953 11.5139 2.26953 11.6512C2.26953 11.7884 2.34602 11.9143 2.46787 11.9774L8.85786 15.7274C8.97036 15.7874 9.10537 15.7874 9.21787 15.7274L15.6079 11.9774C15.7241 11.9013 15.7874 11.7661 15.7716 11.6281C15.7557 11.49 15.6633 11.3727 15.5329 11.3249Z" fill="#FAFAFA"/>
</svg>
