<svg width="12" height="16" viewBox="0 0 12 16" fill="none" xmlns="http://www.w3.org/2000/svg">
<path fill-rule="evenodd" clip-rule="evenodd" d="M8.475 0.747635L11.805 4.49764C11.93 4.63518 11.9995 4.81426 12 5.00013V13.6251C11.9941 14.1284 11.7884 14.6087 11.4284 14.9603C11.0683 15.312 10.5833 15.5061 10.08 15.5001H1.92C1.41674 15.5061 0.931714 15.312 0.571636 14.9603C0.211559 14.6087 0.00593212 14.1284 0 13.6251V2.37514C0.00593212 1.87188 0.211559 1.39159 0.571636 1.03995C0.931714 0.688312 1.41674 0.494132 1.92 0.500135H7.92C8.13163 0.500635 8.33321 0.590526 8.475 0.747635ZM8.05371 2.59224C7.85544 2.38019 7.49996 2.52049 7.49996 2.81079V4.3625C7.4876 4.52096 7.53943 4.67774 7.64379 4.79762C7.74816 4.9175 7.89631 4.99042 8.05497 5H9.56768C9.84761 5 9.99261 4.66593 9.80142 4.46145L8.05371 2.59224Z" fill="#919EAB"/>
</svg>
