<svg width="18" height="18" viewBox="0 0 18 18" fill="none" xmlns="http://www.w3.org/2000/svg">
<path fill-rule="evenodd" clip-rule="evenodd" d="M11.475 2.23113L14.805 5.73113C14.93 5.85951 14.9995 6.02665 15 6.20013V14.2501C14.9941 14.7199 14.7884 15.1681 14.4284 15.4963C14.0683 15.8245 13.5833 16.0057 13.08 16.0001H4.92C4.41674 16.0057 3.93171 15.8245 3.57164 15.4963C3.21156 15.1681 3.00593 14.7199 3 14.2501V3.75013C3.00593 3.28042 3.21156 2.83215 3.57164 2.50395C3.93171 2.17576 4.41674 1.99452 4.92 2.00013H10.92C11.1316 2.00059 11.3332 2.08449 11.475 2.23113ZM11.0462 3.945C10.8445 3.74369 10.5001 3.88653 10.5001 4.17148V5.60491C10.4878 5.7528 10.5396 5.89913 10.6439 6.01102C10.7483 6.12291 10.8965 6.19097 11.0551 6.19991H12.5316C12.8168 6.19991 12.9595 5.85494 12.7577 5.65343L11.0462 3.945Z" fill="#FAFAFA"/>
</svg>
