<svg width="18" height="18" viewBox="0 0 18 18" fill="none" xmlns="http://www.w3.org/2000/svg">
<path fill-rule="evenodd" clip-rule="evenodd" d="M14.061 7.159H14.824C15.4746 7.16285 16 7.69137 16 8.342V9.7C15.9966 10.3307 15.4963 10.8465 14.866 10.869H14.103C14.0112 10.8767 13.9322 10.9367 13.9 11.023C13.8489 11.1018 13.8489 11.2032 13.9 11.282L14.411 11.793C14.632 12.0125 14.7563 12.311 14.7563 12.6225C14.7563 12.934 14.632 13.2325 14.411 13.452L13.473 14.39C13.2561 14.6132 12.9582 14.7394 12.647 14.74C12.3344 14.7359 12.0357 14.6104 11.814 14.39L11.282 13.851C11.2032 13.7999 11.1018 13.7999 11.023 13.851C10.918 13.893 10.841 13.963 10.841 14.061V14.824C10.8372 15.4746 10.3086 16 9.658 16H8.335C7.70157 16.0004 7.18162 15.499 7.159 14.866V14.103C7.15126 14.0112 7.09128 13.9322 7.005 13.9C6.91754 13.844 6.80546 13.844 6.718 13.9L6.179 14.418C5.95954 14.639 5.66096 14.7633 5.3495 14.7633C5.03804 14.7633 4.73946 14.639 4.52 14.418L3.582 13.466C3.35774 13.2469 3.23152 12.9465 3.232 12.633C3.2361 12.3204 3.36162 12.0217 3.582 11.8L4.149 11.282C4.20009 11.2032 4.20009 11.1018 4.149 11.023C4.107 10.918 4.037 10.841 3.939 10.841H3.176C2.52538 10.8372 1.99999 10.3086 2 9.658V8.335C2 7.68551 2.52651 7.159 3.176 7.159H3.897C3.98876 7.15126 4.06782 7.09128 4.1 7.005C4.15604 6.91754 4.15604 6.80546 4.1 6.718L3.582 6.2C3.35446 5.97978 3.226 5.67666 3.226 5.36C3.226 5.04334 3.35446 4.74023 3.582 4.52L4.541 3.582C4.75793 3.35881 5.05576 3.23261 5.367 3.232C5.67957 3.2361 5.9783 3.36162 6.2 3.582L6.718 4.149C6.79678 4.20009 6.89822 4.20009 6.977 4.149C7.082 4.107 7.159 4.037 7.159 3.939V3.176C7.16285 2.52538 7.69137 1.99999 8.342 2H9.7C10.3358 2.01893 10.8413 2.53994 10.841 3.176V3.897C10.8487 3.98876 10.9087 4.06782 10.995 4.1C11.0825 4.15604 11.1945 4.15604 11.282 4.1L11.821 3.582C12.0405 3.361 12.339 3.23671 12.6505 3.23671C12.962 3.23671 13.2605 3.361 13.48 3.582L14.418 4.541C14.6416 4.76054 14.7677 5.06065 14.768 5.374C14.769 5.68557 14.6426 5.984 14.418 6.2L13.851 6.718C13.7999 6.79678 13.7999 6.89823 13.851 6.977C13.893 7.082 13.963 7.159 14.061 7.159ZM6.73657 9.93765C7.11578 10.8531 8.00914 11.4501 9.00007 11.4501C10.3532 11.4501 11.4501 10.3532 11.4501 9.00007C11.4501 8.00914 10.8531 7.11578 9.93764 6.73657C9.02214 6.35735 7.96835 6.56696 7.26766 7.26766C6.56696 7.96835 6.35735 9.02214 6.73657 9.93765Z" fill="#FAFAFA"/>
</svg>
