<svg width="536" height="473" viewBox="0 0 536 473" fill="none" xmlns="http://www.w3.org/2000/svg">
<path d="M209.27 464.801C139.074 444.518 68.565 391.623 41.5086 369.824C9.60984 344.122 -4.16168 315.221 2.73025 288.441C6.69638 273.028 17.4255 258.919 33.7572 247.643C50.2928 236.227 72.1774 228.013 97.0479 223.888C149.899 215.123 158.177 189.788 170.705 151.44C179.732 123.81 190.968 89.4253 222.49 49.6027C235.445 33.2411 249.105 21.4253 264.258 13.4867C277.785 6.28137 293.851 2.06238 311.058 1.19639C344.188 -0.591865 382.056 8.87202 425.905 19.8316C446.283 24.9246 467.355 30.191 490.384 35.0128C503.099 37.6904 514.744 43.9234 523.003 52.4715C531.261 61.0196 535.528 71.2559 534.952 81.1432L524.57 263.36C523.979 273.944 518.333 283.409 508.723 289.93C499.162 296.468 486.241 299.522 472.568 298.478C452.036 296.898 432.855 303.151 415.56 317.061C395.403 333.272 378.355 359.599 364.887 395.314C351.047 432.012 329.198 455.984 299.941 466.561C282.037 473.034 261.257 474.552 237.915 471.123C228.267 469.67 218.681 467.554 209.27 464.801V464.801ZM4.55265 288.922C-2.20749 315.196 11.3556 343.594 42.7451 368.884C69.6935 390.597 139.907 443.277 209.681 463.439C219.086 466.195 228.667 468.312 238.309 469.767C291.005 477.511 329.533 459.577 353.29 416.251C340.338 437.31 323.406 451.716 302.72 459.217C285.347 465.517 265.23 467.007 242.675 463.693C233.147 462.257 223.683 460.15 214.401 457.397C146.34 437.684 78.0153 386.412 51.7988 365.283C20.8556 340.344 7.48369 312.298 14.1496 286.314C17.9808 271.379 28.3538 257.704 44.1472 246.772C57.5164 237.514 74.5144 230.422 93.7938 226.001C46.3584 234.81 12.3264 258.709 4.55265 288.922ZM15.9734 286.793C9.43712 312.274 22.6027 339.814 53.0365 364.344C79.1451 385.386 147.175 436.446 214.818 456.036C279.917 475.091 326.683 459.995 354.166 411.163C341.628 431.048 325.375 444.684 305.619 451.84C288.732 457.956 269.179 459.399 247.245 456.177C237.909 454.77 228.634 452.7 219.539 449.995C153.196 430.52 87.3318 381.091 62.0929 360.743C32.1014 336.565 19.1316 309.376 25.5729 284.187C29.2687 269.73 39.2847 256.491 54.5385 245.9C67.4667 236.923 83.91 230.042 102.568 225.748C56.5292 234.265 23.4952 257.47 15.9733 286.795L15.9734 286.793ZM27.3929 284.665C21.0838 309.351 33.8439 336.035 63.326 359.805C88.457 380.065 154.03 429.283 219.957 448.635C283.644 467.329 329.335 452.417 356.094 404.314C343.794 423.984 327.843 437.45 308.455 444.479C292.079 450.416 273.133 451.823 251.902 448.704C242.722 447.319 233.604 445.272 224.669 442.591C160.253 423.522 96.7097 375.823 72.3812 356.202C43.4138 332.842 30.8393 306.584 36.9851 282.267C40.5178 268.283 50.167 255.455 64.8894 245.168C77.5072 236.356 93.6068 229.598 111.894 225.391C66.9698 233.531 34.694 256.113 27.3929 284.665ZM38.8065 282.743C32.7903 306.556 45.1535 332.313 73.6143 355.263C97.8393 374.8 161.092 422.286 225.092 441.232C287.011 459.564 331.528 445.001 357.704 397.968C345.682 417.153 330.142 430.278 311.29 437.119C295.42 442.877 277.087 444.245 256.553 441.23C247.531 439.867 238.572 437.844 229.798 435.186C167.314 416.526 106.091 370.558 82.6688 351.661C54.6792 329.08 42.5087 303.705 48.4025 280.21C51.7911 266.702 61.084 254.299 75.2672 244.347C87.4544 235.796 103.029 229.231 120.716 225.136C77.1036 233.1 45.7997 255.073 38.8065 282.743ZM50.2266 280.684C44.461 303.678 56.421 328.551 83.9045 350.723C107.222 369.535 168.157 415.294 230.23 433.83C290.386 451.796 333.72 437.592 359.318 391.625C347.573 410.319 332.442 423.107 314.129 429.76C298.771 435.339 281.043 436.669 261.209 433.755C252.345 432.417 243.544 430.416 234.931 427.782C210.752 420.494 184.15 408.171 155.869 391.152C133.634 377.691 112.593 362.964 92.9584 347.119C65.949 325.321 54.1819 300.829 59.8231 278.154C63.0658 265.12 71.9955 253.145 85.6452 243.524C97.4189 235.224 112.484 228.843 129.608 224.862C87.3135 232.557 56.9513 253.879 50.2292 280.684L50.2266 280.684ZM61.6473 278.627C56.129 300.801 67.6895 324.792 94.1966 346.185C111.683 360.297 173.543 407.797 235.37 426.431C293.748 444.024 335.9 430.182 360.924 385.299C349.455 403.499 334.735 415.941 316.965 422.404C302.115 427.806 284.998 429.097 265.857 426.285C257.152 424.969 248.512 422.991 240.061 420.381C216.745 413.286 191.114 401.381 163.883 385C142.463 372.023 122.184 357.837 103.248 342.583C77.2129 321.563 65.8453 297.951 71.2351 276.097C74.333 263.542 82.9037 251.993 96.0159 242.701C107.38 234.649 121.949 228.451 138.518 224.582C97.5332 232.006 68.1066 252.679 61.6473 278.627ZM73.0674 276.568C67.7991 297.921 78.9568 321.033 104.49 341.645C121.271 355.196 180.674 400.821 240.511 419.03C296.992 436.216 337.91 422.825 362.386 379.237C341.902 411.537 311.185 424.807 270.684 418.859C262.08 417.555 253.542 415.585 245.198 412.977C186.945 395.072 129.698 351.094 113.543 338.043C88.4855 317.803 77.5172 295.075 82.6603 274.043C85.6149 261.962 93.8238 250.841 106.4 241.879C117.354 234.074 131.423 228.06 147.43 224.306C107.751 231.457 79.2571 251.481 73.0675 276.566L73.0674 276.568ZM155.768 224.124C117.694 231.098 90.3809 250.404 84.4836 274.508C79.4614 295.039 90.2222 317.27 114.779 337.103C130.856 350.089 187.806 393.847 245.647 411.625C300.412 428.459 340.172 415.382 364.077 372.764C344.122 404.186 314.374 417.114 275.265 411.369C266.844 410.091 258.489 408.147 250.332 405.57C194.08 388.096 139.289 345.986 123.836 333.498C99.7569 314.041 89.1894 292.194 94.0825 271.982C96.8903 260.379 104.738 249.683 116.779 241.052C127.336 233.483 140.928 227.649 156.407 224.005C156.19 224.046 155.981 224.085 155.768 224.124ZM164.067 223.955C127.619 230.753 101.501 249.334 95.9057 272.449C91.1354 292.161 101.492 313.509 125.073 332.562C140.446 344.988 194.945 386.878 250.787 404.225C303.812 420.696 342.412 407.941 365.753 366.32C346.32 396.839 317.539 409.419 279.83 403.879C271.596 402.629 263.429 400.715 255.462 398.17C201.217 381.131 148.874 340.888 134.123 328.959C111.023 310.283 100.855 289.32 105.497 269.929C108.16 258.802 115.649 248.533 127.152 240.232C137.341 232.879 150.504 227.21 165.5 223.68C165.027 223.773 164.549 223.865 164.067 223.955ZM172.368 223.785C137.544 230.406 112.623 248.266 107.326 270.393C102.803 289.283 112.759 309.75 135.363 328.023C150.035 339.887 202.089 379.912 255.928 396.823C307.232 412.937 344.69 400.483 367.473 359.809C357.067 376.135 343.953 387.258 328.321 392.975C315.515 397.661 300.817 398.799 284.433 396.392C276.373 395.167 268.38 393.28 260.59 390.763C208.36 374.163 158.461 335.786 144.414 324.418C122.291 306.524 112.525 286.443 116.915 267.874C119.435 257.222 126.563 247.379 137.53 239.409C147.479 232.176 160.418 226.621 175.173 223.216C174.254 223.414 173.319 223.603 172.368 223.783L172.368 223.785ZM284.863 83.112C278.985 87.6849 273.685 92.6984 269.018 98.0994C245.287 125.242 236.478 149.285 231.912 165.01C231.516 166.379 231.127 167.729 230.745 169.058C226.747 182.964 223.295 194.974 216.36 204.199C208.862 214.174 197.52 220.344 180.668 223.617C147.472 230.063 123.743 247.199 118.746 268.339C114.473 286.41 124.029 305.995 145.655 323.487C159.623 334.791 209.238 372.955 261.067 389.426C310.599 405.168 346.894 393.05 369.133 353.411C358.981 369.287 346.262 380.091 331.165 385.627C318.868 390.134 304.773 391.231 289.074 388.925C281.177 387.724 273.347 385.859 265.725 383.365C215.512 367.21 168.056 330.692 154.706 319.881C133.563 302.769 124.198 283.572 128.337 265.825C130.71 255.648 137.477 246.231 147.909 238.591C158.375 230.924 172.334 225.198 188.28 222.029C222.05 215.322 227.103 197.394 234.751 170.26C235.108 168.999 235.469 167.72 235.834 166.42C240.113 151.375 248.51 128.319 271.934 101.918C276.505 96.705 281.691 91.8718 287.436 87.4698C303.576 75.2589 321.923 70.1368 345.174 71.3464C366.362 72.45 389.671 78.5478 416.66 85.6094C429.758 89.0358 443.302 92.578 457.895 95.8977C475.522 99.9069 488.624 113.207 488.439 126.875C488.998 128.333 489.412 134.769 488.436 169.84C487.792 192.795 486.79 219.308 486.188 235.148C485.902 242.657 485.696 248.083 485.711 248.446C486.426 254.748 483.755 260.708 478.186 265.201C471.365 270.563 461.728 273.288 451.338 272.792C438.008 272.094 425.353 276.436 413.728 285.698C408.072 290.203 402.666 295.868 397.51 302.691C401.802 297.176 406.817 292.072 412.487 287.448C424.96 277.498 438.634 272.863 453.132 273.667C463.491 274.195 473.115 271.505 479.932 266.176C485.441 261.755 488.09 255.898 487.389 249.685C487.366 249.474 487.47 246.824 487.928 235.568C489.125 205.997 492.286 127.903 490.971 123.086L490.8 122.963L490.81 122.606C490.928 115.969 487.924 109.176 482.36 103.498C476.796 97.8192 469.055 93.6453 460.585 91.7575C445.174 88.2889 430.916 84.5802 417.127 80.9934C395.953 75.4857 376.989 70.5532 359.683 68.0108C331.091 63.8131 307.008 66.1253 284.862 83.1104L284.863 83.112ZM288.82 88.5873C283.147 92.936 278.025 97.7099 273.51 102.858C250.243 129.086 241.902 151.983 237.653 166.924C237.282 168.222 236.92 169.501 236.567 170.762C232.792 184.158 229.53 195.726 222.941 204.637C215.811 214.279 205.016 220.255 188.969 223.444C156.919 229.81 134.936 245.823 130.165 266.278C126.14 283.528 135.297 302.23 155.945 318.941C183.294 341.085 226.622 369.284 266.205 382.02C290.997 389.996 312.524 390.757 330.188 384.284C346.711 378.226 360.356 365.673 370.864 346.9C360.949 362.385 348.598 372.906 334 378.27C322.216 382.599 308.719 383.656 293.701 381.45C285.968 380.272 278.304 378.43 270.852 375.957C232.561 363.476 191.061 336.459 164.991 315.336C144.828 299.006 135.864 280.692 139.752 263.767C141.98 254.067 148.389 245.075 158.28 237.765C168.195 230.437 181.433 224.936 196.567 221.855C228.604 215.334 233.364 198.082 240.565 171.966C240.893 170.774 241.227 169.565 241.569 168.338C247.882 145.647 258.957 126.052 276.426 106.667C280.848 101.707 285.856 97.1138 291.395 92.9351C306.972 81.325 324.668 76.4966 347.08 77.7369C367.492 78.8655 389.904 84.7668 415.852 91.597C428.277 94.8692 441.124 98.2511 454.939 101.428C471.745 105.294 484.289 117.992 484.205 131.012C484.803 132.385 485.33 138.442 484.53 172.172C484.012 194.082 483.122 219.347 482.589 234.443C482.337 241.572 482.155 246.723 482.173 247.087C482.862 253.115 480.321 258.821 475.015 263.123C468.517 268.261 459.327 270.891 449.403 270.451C436.728 269.832 424.664 273.999 413.549 282.842C408.011 287.247 402.706 292.813 397.636 299.539C401.839 294.129 406.755 289.126 412.317 284.596C424.276 275.07 437.358 270.608 451.194 271.332C461.091 271.805 470.27 269.211 476.768 264.105C482.014 259.873 484.534 254.272 483.86 248.337C483.833 248.11 483.927 245.586 484.333 234.892C485.405 206.62 488.243 131.913 486.76 127.273L486.573 127.137L486.58 126.782C486.843 113.785 474.394 101.106 457.626 97.2922C442.992 93.965 429.428 90.4162 416.311 86.9844C395.727 81.6004 377.314 76.7822 360.509 74.3134C333.168 70.2969 310.084 72.4985 288.819 88.5847L288.82 88.5873ZM292.777 94.0626C287.308 98.1887 282.364 102.725 277.998 107.622C260.654 126.868 249.656 146.322 243.39 168.843C243.051 170.067 242.716 171.275 242.386 172.466C238.834 185.353 235.763 196.482 229.521 205.078C222.76 214.389 212.513 220.172 197.266 223.273C166.866 229.462 146.05 244.77 141.58 264.223C137.807 280.651 146.563 298.473 166.232 314.403C192.144 335.397 233.365 362.242 271.344 374.621C295.244 382.411 315.994 383.187 333.024 376.93C349.02 371.054 362.292 358.796 372.578 340.425C362.898 355.503 350.921 365.733 336.838 370.918C325.565 375.068 312.671 376.086 298.331 373.979C290.764 372.823 283.266 371.002 275.985 368.551C239.31 356.432 199.919 330.769 175.286 310.794C156.102 295.246 147.541 277.817 151.175 261.714C155.448 242.783 175.518 227.819 204.865 221.686C235.173 215.351 239.635 198.771 246.39 173.675C246.691 172.552 246.998 171.414 247.311 170.261C253.144 148.771 263.828 130.074 280.93 111.421C285.202 106.714 290.031 102.359 295.364 98.403C310.38 87.3948 327.424 82.8605 349 84.1305C368.637 85.2878 390.152 90.9907 415.065 97.5955C426.811 100.71 438.959 103.927 451.992 106.963C467.979 110.686 479.97 122.783 479.981 135.157C480.613 136.464 481.253 142.195 480.634 174.544C480.236 195.422 479.46 219.44 478.998 233.791C478.782 240.513 478.625 245.369 478.645 245.733C479.308 251.486 476.899 256.931 471.861 261.051C465.683 265.965 456.939 268.499 447.481 268.117C435.457 267.577 423.985 271.572 413.381 279.992C407.948 284.306 402.732 289.788 397.733 296.438C401.854 291.116 406.681 286.195 412.147 281.744C423.592 272.642 436.079 268.353 449.26 268.997C458.692 269.414 467.426 266.916 473.604 262.035C478.587 257.99 480.976 252.646 480.329 246.987C480.302 246.746 480.386 244.185 480.74 234.196C481.691 207.227 484.202 135.919 482.551 131.458L482.348 131.31L482.353 130.957C482.538 118.592 470.635 106.498 454.669 102.828C440.815 99.6402 427.949 96.254 415.505 92.978C395.51 87.7134 377.644 83.0098 361.346 80.6155C335.24 76.7804 313.161 78.8686 292.776 94.06L292.777 94.0626ZM296.728 99.5346C291.465 103.438 286.701 107.736 282.485 112.381C265.511 130.892 254.911 149.441 249.125 170.756C248.813 171.907 248.506 173.045 248.205 174.168C241.577 198.787 236.789 216.573 205.565 223.099C176.815 229.11 157.165 243.713 152.998 262.163C149.474 277.771 157.829 294.711 176.517 309.86C200.995 329.708 240.109 355.198 276.477 367.217C321.363 382.049 353.429 371.222 374.214 334.104C357.334 360.355 333.885 371.087 303.168 366.575C295.691 365.428 288.285 363.606 281.105 361.146C246.053 349.394 208.768 325.084 185.566 306.253C167.362 291.489 159.199 274.942 162.582 259.662C166.55 241.736 185.451 227.476 213.141 221.517C241.72 215.366 245.885 199.459 252.192 175.384C252.47 174.331 252.748 173.265 253.034 172.185C258.325 152.154 268.917 133.833 285.411 116.176C289.535 111.721 294.187 107.605 299.318 103.872C313.772 93.4643 330.166 89.2246 350.91 90.5282C369.772 91.7128 390.395 97.22 414.274 103.598C425.339 106.554 436.78 109.611 449.027 112.501C464.188 116.078 475.623 127.568 475.738 139.295C476.42 140.505 477.158 145.773 476.718 176.883C476.439 196.717 475.783 219.488 475.39 233.094C475.206 239.435 475.074 244.017 475.097 244.379C476.671 257.946 461.085 266.403 445.537 265.781C428.051 265.07 412.103 274.254 397.914 293.139C412.502 274.724 429.034 265.839 447.304 266.66C456.271 267.023 464.562 264.621 470.419 259.963C475.208 256.049 477.408 251.096 476.779 245.638C476.749 245.381 476.822 242.964 477.126 233.547C477.874 210.323 480.142 139.958 478.321 135.644L478.101 135.482L478.104 135.131C478.21 123.397 466.854 111.89 451.688 108.358C438.619 105.316 426.454 102.09 414.689 98.9722C395.273 93.826 377.951 89.2337 362.157 86.9134C337.313 83.2622 316.234 85.2371 296.728 99.5346ZM300.684 105.011C295.627 108.692 291.041 112.75 286.974 117.143C270.611 134.658 260.108 152.82 254.866 172.671C254.58 173.751 254.299 174.817 254.025 175.869C247.834 199.507 243.358 216.583 213.872 222.929C186.772 228.761 168.287 242.66 164.422 260.109C161.101 275.11 168.845 290.744 186.816 305.319C209.861 324.025 246.876 348.165 281.624 359.816C324.76 374.28 355.719 363.709 376.017 327.5C359.587 352.949 337.019 363.379 307.63 359.062C300.376 357.946 293.195 356.159 286.242 353.74C252.817 342.358 217.641 319.401 195.863 301.711C178.642 287.729 170.882 272.068 174.01 257.61C177.675 240.686 195.407 227.129 221.441 221.347C248.289 215.382 252.161 200.149 258.021 177.09L258.781 174.104C263.618 155.216 273.8 137.822 289.92 120.926C293.895 116.723 298.369 112.847 303.293 109.338C333.466 88.0415 368.795 97.5571 413.52 109.604C423.898 112.399 434.631 115.29 446.087 118.031C460.431 121.465 471.313 132.363 471.517 143.448C472.229 144.613 473.08 149.629 472.833 179.251C472.673 198.052 472.129 219.576 471.81 232.437C471.659 238.375 471.552 242.664 471.578 243.023C473.083 255.873 458.339 263.96 443.625 263.441C426.967 262.844 411.655 271.823 397.904 290.195C412.034 272.292 427.928 263.61 445.38 264.319C460.034 264.905 474.736 256.994 473.258 244.284C473.226 243.997 473.305 241.121 473.546 232.847C474.183 210.799 476.114 143.953 474.13 139.825L473.892 139.652L473.892 139.302C473.921 128.203 463.111 117.277 448.749 113.888C436.467 110.992 425.006 107.93 413.922 104.968C395.086 99.9381 378.298 95.453 363.002 93.206C339.382 89.7416 319.308 91.6041 300.687 105.011L300.684 105.011ZM304.639 110.487C299.789 113.946 295.383 117.766 291.468 121.907C275.493 138.656 265.4 155.889 260.611 174.589L259.85 177.573C254.093 200.225 249.935 216.596 222.18 222.76C196.729 228.412 179.407 241.607 175.844 258.053C172.778 272.225 180.13 286.998 197.107 300.78C218.732 318.346 253.641 341.136 286.767 352.416C308.292 359.745 326.204 360.552 341.531 354.88C356.112 349.485 368.002 338.396 377.73 321.075C368.705 335.022 358.036 344.161 345.345 348.872C335.521 352.518 324.638 353.451 312.432 351.657C305.283 350.55 298.21 348.764 291.374 346.339C259.588 335.336 226.513 313.728 206.157 297.174C185.341 280.26 183.398 265.211 185.432 255.565C188.791 239.645 205.351 226.792 229.731 221.183C254.852 215.403 258.427 200.844 263.836 178.805L264.519 176.032C268.913 158.269 278.691 141.799 294.421 125.682C298.246 121.733 302.542 118.096 307.262 114.811C336.231 94.8147 370.011 103.997 412.778 115.623C422.463 118.256 432.479 120.98 443.136 123.572C456.663 126.861 466.99 137.158 467.289 147.598C468.046 148.696 468.996 153.325 468.937 181.62C468.901 199.387 468.474 219.664 468.22 231.78C468.103 237.319 468.019 241.32 468.048 241.674C469.482 253.808 455.587 261.524 441.701 261.112C425.834 260.628 411.117 269.453 397.767 287.404C411.475 269.922 426.768 261.395 443.445 261.99C457.274 262.475 471.136 254.937 469.729 242.941C469.695 242.649 469.756 240.078 469.955 232.204C470.481 211.319 472.075 147.964 469.921 144.017L469.666 143.832L469.664 143.484C469.615 133.016 459.35 122.674 445.787 119.428C434.299 116.677 423.549 113.781 413.153 110.981C394.889 106.062 378.635 101.684 363.835 99.5096C341.45 96.2206 322.381 97.9669 304.642 110.489L304.639 110.487ZM308.595 115.964C303.947 119.199 299.718 122.78 295.951 126.669C280.372 142.634 270.689 158.935 266.344 176.503L265.663 179.273C260.343 200.943 256.499 216.601 230.479 222.588C206.679 228.064 190.523 240.555 187.262 256C184.447 269.337 191.41 283.253 207.395 296.242C227.602 312.674 260.413 334.116 291.904 345.016C312.532 352.158 329.691 352.979 344.365 347.537C358.415 342.323 369.965 331.48 379.55 314.473C370.691 328.101 360.362 336.993 348.183 341.528C338.875 344.995 328.576 345.885 317.029 344.189C310.054 343.106 303.157 341.34 296.505 338.936C266.338 328.306 234.524 307.351 216.45 292.635C196.894 276.727 195 262.583 196.856 253.521C199.909 238.601 215.3 226.451 238.023 221.015C261.419 215.419 264.696 201.533 269.654 180.514L270.259 177.956C274.22 161.293 283.596 145.746 298.921 130.434C302.599 126.738 306.717 123.34 311.231 120.277C338.998 101.579 371.238 110.436 412.059 121.648C421.044 124.116 430.335 126.668 440.189 129.107C453.111 132.306 462.679 141.805 463.06 151.758C463.837 152.824 464.908 157.251 465.041 183.965C465.124 200.69 464.814 219.72 464.628 231.092C464.545 236.051 464.484 239.97 464.516 240.318C465.142 245.545 462.755 250.353 457.793 253.85C452.999 257.174 446.635 258.914 439.778 258.777C424.689 258.407 410.543 267.103 397.562 284.678C410.875 267.565 425.589 259.169 441.506 259.653C454.51 260.039 467.536 252.874 466.199 241.593C466.163 241.285 466.21 238.886 466.365 231.546C466.78 211.825 468.038 151.961 465.715 148.203L465.445 148.009L465.441 147.663C465.315 137.825 455.598 128.068 442.834 124.963C432.143 122.362 422.111 119.635 412.411 116.998C395.326 112.354 379.692 108.103 365.263 105.984C344.037 102.863 325.417 104.352 308.598 115.964L308.595 115.964ZM312.547 121.44C308.106 124.453 304.055 127.795 300.438 131.432C285.27 146.588 275.994 161.959 272.082 178.418L271.477 180.974C266.598 201.66 263.071 216.608 238.784 222.415C216.63 227.714 201.642 239.501 198.686 253.947C196.127 266.449 202.698 279.507 217.69 291.701C235.624 306.304 267.169 327.089 297.049 337.616C335.347 351.106 362.262 341.636 381.432 307.791C372.705 321.15 362.696 329.819 351.019 334.187C342.231 337.471 332.51 338.319 321.623 336.72C314.823 335.66 308.102 333.915 301.633 331.529C273.124 321.294 243.471 301.734 226.737 288.092C208.444 273.19 206.6 259.955 208.273 251.473C211.021 237.556 225.239 226.107 246.308 220.846C267.98 215.435 271.118 201.506 275.464 182.226L275.996 179.882C279.534 164.292 288.504 149.673 303.419 135.186C306.949 131.742 310.89 128.584 315.199 125.744C341.768 108.344 372.482 116.879 411.367 127.684C419.641 129.982 428.197 132.359 437.24 134.643C449.331 137.694 458.357 146.609 458.826 155.911C459.649 156.932 460.815 161.026 461.144 186.33C461.349 202.021 461.153 219.803 461.036 230.429C460.986 235.008 460.946 238.628 460.981 238.968C462.323 250.018 450.018 256.641 437.849 256.442C429.083 256.288 420.549 259.415 412.481 265.738C407.344 269.764 402.292 275.163 397.371 281.876C401.281 276.64 405.936 271.817 411.263 267.486C420.147 260.498 429.669 257.076 439.564 257.318C451.743 257.605 463.931 250.811 462.665 240.244C462.624 239.908 462.665 237.289 462.771 230.866C463.073 212.312 463.992 155.962 461.5 152.388L461.216 152.182L461.209 151.839C461.008 142.632 451.835 133.457 439.87 130.495C429.986 128.048 420.679 125.493 411.68 123.019C395.124 118.471 379.999 114.317 366.046 112.267C346.058 109.331 328.48 110.712 312.55 121.44L312.547 121.44ZM316.499 126.918C312.264 129.708 308.392 132.812 304.925 136.197C290.176 150.522 281.31 164.959 277.821 180.331L277.288 182.676C272.849 202.376 269.643 216.61 247.087 222.242C226.585 227.363 212.759 238.446 210.105 251.894C207.8 263.566 213.979 275.761 227.977 287.161C244.571 300.691 273.965 320.082 302.187 330.215C321.028 336.979 336.676 337.842 350.027 332.85C363.029 327.988 373.949 317.581 383.353 301.063C368.481 323.697 350.277 332.804 326.313 329.285C319.651 328.241 313.071 326.504 306.754 324.122C279.923 314.293 252.423 296.123 237.022 283.55C223.54 272.553 217.547 260.754 219.689 249.429C222.131 236.512 235.177 225.765 254.588 220.676C274.536 215.449 277.359 202.229 281.268 183.937L281.721 181.803C284.848 167.265 293.413 153.57 307.908 139.934C311.287 136.74 315.054 133.821 319.167 131.21C344.547 115.106 373.744 123.323 410.708 133.733C418.262 135.859 426.071 138.058 434.288 140.178C445.555 143.085 454.039 151.421 454.592 160.074C455.429 161.069 456.724 165.005 457.25 188.696C457.576 203.353 457.496 219.889 457.447 229.769C457.427 233.967 457.412 237.284 457.448 237.619C458.72 247.927 447.264 254.204 435.926 254.107C422.251 253.973 409.497 262.145 397.205 278.996C409.727 262.619 423.063 254.727 437.622 254.982C448.927 255.17 460.366 249.072 459.128 238.895C459.086 238.546 459.11 236.129 459.175 230.207C459.369 212.814 459.948 159.956 457.284 156.571L456.987 156.354L456.976 156.017C456.694 147.297 448.254 138.892 436.907 136.028C427.835 133.738 419.263 131.355 410.976 129.053C394.939 124.597 380.311 120.531 366.823 118.55C348.075 115.792 331.541 117.069 316.502 126.918L316.499 126.918ZM320.451 132.396C316.416 134.96 312.722 137.826 309.409 140.962C295.092 154.429 286.636 167.934 283.56 182.244L283.106 184.376C279.11 203.091 276.222 216.61 255.4 222.068C236.547 227.009 223.888 237.392 221.533 249.84C219.484 260.68 225.272 272.013 238.274 282.621C253.536 295.084 280.782 313.088 307.336 322.814C342.515 335.702 366.623 326.89 385.374 294.235C376.781 307.189 367.355 315.482 356.678 319.51C348.96 322.435 339.905 323.232 330.788 321.789C324.341 320.775 317.978 319.067 311.886 316.716C286.746 307.304 261.391 290.521 247.316 279.01C234.837 268.814 229.234 257.879 231.118 247.387C233.254 235.472 245.127 225.425 262.879 220.51C281.109 215.462 283.615 202.957 287.081 185.65L287.468 183.729C290.192 170.216 298.355 157.444 312.42 144.683C315.648 141.742 319.234 139.063 323.139 136.673C347.341 121.861 375.037 129.78 410.101 139.8C416.915 141.748 423.961 143.762 431.341 145.712C441.777 148.472 449.72 156.227 450.359 164.227C451.234 165.187 452.629 168.835 453.358 191.058C453.807 204.679 453.841 219.966 453.86 229.1C453.868 232.921 453.876 235.939 453.917 236.261C455.116 245.829 444.515 251.759 434.006 251.767C420.938 251.76 408.538 260.079 396.325 277.118C408.71 260.546 421.684 252.507 435.684 252.642C446.167 252.731 456.765 246.984 455.603 237.543C455.557 237.183 455.568 234.832 455.593 229.55C455.64 219.816 455.719 203.526 455.405 189.003C454.894 165.211 453.595 161.311 453.065 160.738L452.728 160.492L452.753 160.191C452.396 152.113 444.488 144.276 433.95 141.556C425.703 139.43 417.881 137.228 410.316 135.098C394.78 130.723 380.637 126.74 367.606 124.826C350.091 122.256 334.597 123.421 320.455 132.396L320.451 132.396ZM530.507 90.1775C530.351 93.2951 530.113 97.7908 529.815 103.33C529.222 114.405 528.386 129.644 527.467 146.323C525.626 179.682 523.444 218.81 522.152 241.945C521.504 253.557 521.069 261.342 521.037 261.962C522.003 271.058 518.021 279.569 509.818 285.93C504.849 289.694 498.83 292.534 492.107 294.287C485.383 296.04 478.088 296.67 470.639 296.142C450.739 294.642 432.138 300.716 415.35 314.195C407.688 320.345 400.495 327.981 393.771 337.102C399.543 329.436 406.368 322.356 414.143 315.969C431.788 301.781 451.415 295.406 472.484 297.025C499.448 299.098 521.51 284.191 522.713 263.088L533.095 80.8703C534.215 61.2192 515.352 41.6938 490.155 36.4193C467.076 31.5881 445.981 26.3154 425.581 21.2159C398.681 14.4936 374.042 8.33435 351.421 5.01119C337.331 2.94126 324.029 1.97277 311.446 2.65257C276.189 4.55313 248.435 19.7589 224.106 50.4952C192.709 90.1591 181.508 124.44 172.508 151.986C160.743 187.996 152.685 212.659 108.546 223.145C156.782 214.043 164.691 189.654 176.529 153.138C177.161 151.194 177.805 149.215 178.462 147.202C187.043 120.954 198.572 89.9688 226.984 54.3586C233.048 46.6215 240.014 39.3983 247.809 32.7657C269.601 14.5215 294.515 6.46867 326.221 7.42116C355.254 8.29241 387.613 16.4083 425.087 25.8054C444.798 30.7482 465.18 35.8598 487.434 40.5477C499.768 43.1573 511.063 49.2069 519.081 57.498C527.099 65.7891 531.255 75.7168 530.726 85.3141L530.676 85.3068C530.723 85.8991 530.66 87.1709 530.507 90.1775ZM324.403 137.876C320.576 140.218 317.061 142.845 313.897 145.728C300.024 158.312 291.98 170.884 289.303 184.157L288.917 186.077C285.366 203.803 282.799 216.611 263.709 221.897C246.506 226.66 235.01 236.341 232.956 247.792C231.164 257.798 236.56 268.272 248.566 278.081C262.507 289.484 287.611 306.104 312.48 315.415C346.054 327.985 368.369 319.778 387.101 287.978C387.233 287.753 387.365 287.531 387.496 287.309C378.801 300.31 369.83 308.263 359.505 312.179C352.315 314.92 343.869 315.672 335.364 314.327C329.095 313.336 322.914 311.646 317.013 309.311C293.58 300.328 270.366 284.927 257.608 274.47C246.13 265.075 240.921 255.006 242.54 245.354C244.37 234.438 255.068 225.09 271.159 220.347C287.673 215.48 289.859 203.69 292.884 187.373L293.203 185.661C295.506 173.316 303.486 161.129 316.921 149.434C320.002 146.747 323.412 144.308 327.113 142.142C350.15 128.623 376.367 136.244 409.556 145.898C415.611 147.659 421.874 149.479 428.393 151.251C438.026 153.869 445.435 161.07 446.13 168.441C448.656 171.591 449.865 189.269 450.276 228.44C450.313 231.872 450.341 234.583 450.383 234.912C451.51 243.738 441.762 249.322 432.084 249.435C419.394 249.563 407.094 258.385 394.626 276.348C407.171 258.849 420.042 250.303 433.737 250.311C443.401 250.304 453.158 244.904 452.068 236.198C452.023 235.827 452.012 233.69 452.004 228.896C451.987 219.872 451.951 204.768 451.516 191.251C450.803 169.127 449.418 165.474 448.855 164.93L448.521 164.689L448.524 164.375C448.093 156.934 440.718 149.666 430.985 147.093C423.583 145.133 416.525 143.119 409.698 141.167C394.644 136.866 380.963 132.956 368.38 131.107C352.098 128.714 337.648 129.768 324.403 137.876ZM526.347 94.2352C526.213 97.2667 526.005 101.635 525.735 107.01C525.245 116.778 524.512 130.804 523.563 148.698C521.842 181.024 519.785 218.755 518.553 241.296C517.941 252.516 517.532 260.02 517.506 260.608C518.447 269.427 514.594 277.681 506.655 283.856C501.846 287.51 496.018 290.269 489.506 291.977C482.995 293.684 475.927 294.306 468.709 293.806C449.488 292.39 431.495 298.292 415.237 311.358C408.47 316.897 402.475 323.001 397.333 329.59C402.186 323.661 407.74 318.144 413.932 313.097C431.067 299.341 450.114 293.148 470.549 294.685C477.748 295.196 484.8 294.587 491.299 292.893C497.798 291.2 503.616 288.455 508.418 284.816C516.299 278.705 520.125 270.541 519.179 261.827C519.172 261.761 519.172 261.761 520.295 241.669C522.6 200.339 528.637 92.132 528.859 85.416L528.845 85.4046L528.866 85.0393C529.907 66.0119 511.604 47.0839 487.197 41.9499C464.897 37.2528 444.491 32.1362 424.759 27.1851C398.126 20.5067 374.117 14.4851 352.145 11.2573C312.36 5.41257 279.246 8.72032 249.242 33.8372C241.514 40.4139 234.608 47.5769 228.598 55.2498C200.303 90.7131 188.814 121.588 180.266 147.745C179.607 149.758 178.963 151.735 178.334 153.679C166.943 188.817 159.148 212.856 116.151 223.092C163.258 214.243 170.894 190.482 182.355 154.831C182.956 152.96 183.57 151.056 184.198 149.119C192.97 121.993 204.769 92.3105 231.482 59.1155C237.39 51.6272 244.178 44.6422 251.771 38.2356C272.986 20.5819 297.242 12.8161 328.11 13.7932C356.363 14.689 387.832 22.6079 424.269 31.7798C443.313 36.5728 463.006 41.5278 484.479 46.0814C496.434 48.6215 507.381 54.4873 515.159 62.5219C522.937 70.5565 526.982 80.1764 526.496 89.4842L526.473 89.4808C526.529 90.0626 526.476 91.3005 526.347 94.2352ZM521.657 110.691C521.219 120.161 520.543 133.747 519.659 151.072C518.058 182.371 516.118 218.852 514.958 240.648C514.383 251.467 513.996 258.693 513.978 259.256C514.892 267.798 511.17 275.796 503.497 281.783C498.846 285.326 493.21 288.006 486.91 289.669C480.61 291.331 473.77 291.945 466.782 291.473C448.216 290.136 430.818 295.868 415.073 308.508C407.758 314.517 401.352 321.186 395.952 328.414C401.096 321.859 407.079 315.784 413.822 310.266C430.43 296.926 448.866 290.9 468.62 292.356C475.59 292.838 482.414 292.238 488.701 290.59C494.989 288.941 500.616 286.277 505.26 282.75C512.878 276.826 516.569 268.917 515.656 260.482C515.647 260.399 515.647 260.398 516.702 241.028C518.886 201.008 524.611 96.0441 524.656 89.6063L524.623 89.5826L524.644 89.2183C525.607 70.8104 507.863 52.481 484.247 47.49C462.726 42.9263 443.011 37.9645 423.944 33.1656C397.899 26.611 374.434 20.7052 352.967 17.5515C314.422 11.8875 282.313 15.0915 253.2 39.3132C245.675 45.6654 238.948 52.5902 233.091 60.0132C206.495 93.0654 194.743 122.636 186.005 149.667C185.376 151.602 184.762 153.505 184.163 155.376C173.137 189.673 165.603 213.098 123.658 223.071C169.692 214.616 177.05 191.496 188.125 156.716C188.718 154.857 189.322 152.966 189.936 151.042C198.273 124.949 209.621 96.3269 235.973 63.8705C241.728 56.6318 248.337 49.885 255.729 43.7034C276.367 26.6411 299.969 19.1628 329.996 20.1659C357.472 21.085 388.049 28.8091 423.451 37.7538C441.827 42.3961 460.827 47.195 481.522 51.6148C493.097 54.0866 503.693 59.7688 511.231 67.5463C518.769 75.3237 522.705 84.635 522.265 93.653L522.23 93.6478C522.381 94.7781 522.231 98.2834 521.657 110.691ZM517.577 114.34C517.188 123.495 516.579 136.621 515.76 153.35C514.279 183.576 512.457 218.814 511.367 239.866C510.823 250.36 510.461 257.359 510.444 257.904C511.334 266.167 507.743 273.911 500.332 279.711C491.261 286.642 478.499 290.032 464.851 289.136C446.94 287.88 430.133 293.438 414.908 305.656C407.74 311.54 401.466 318.073 396.181 325.155C401.209 318.745 407.059 312.805 413.654 307.41C429.742 294.494 447.583 288.64 466.681 290.017C473.421 290.472 480.018 289.882 486.094 288.279C492.17 286.676 497.607 284.092 502.093 280.675C509.445 274.94 513.006 267.288 512.12 259.131C512.108 259.039 512.107 259.027 513.099 240.378C515.16 201.658 520.568 99.9732 520.441 93.7893L520.391 93.7522L520.412 93.3884C521.293 75.601 504.112 57.8701 481.288 53.0211C460.548 48.5891 441.525 43.7858 423.129 39.1388C397.669 32.7061 374.746 26.916 353.784 23.8365C316.488 18.3574 285.382 21.4568 257.163 44.7863C249.838 50.9138 243.287 57.6007 237.581 64.7748C211.349 97.0882 200.049 125.595 191.744 151.586C191.123 153.508 190.519 155.398 189.93 157.256C179.333 190.544 172.098 213.282 131.685 222.948C176.195 214.724 183.276 192.273 193.93 158.477C194.498 156.67 195.079 154.833 195.673 152.965C203.584 127.897 214.486 100.327 240.464 68.6264C246.076 61.6444 252.506 55.1377 259.688 49.1758C279.813 32.7319 302.786 25.5543 331.984 26.5873C358.694 27.5329 388.378 35.0562 422.747 43.769C440.416 48.2475 458.687 52.8783 478.564 57.1537C489.76 59.5562 500.007 65.0543 507.305 72.5749C514.602 80.0955 518.427 89.0986 518.032 97.8267L518.007 97.8229C518.184 98.9366 518.08 102.358 517.574 114.339L517.577 114.34ZM328.353 143.355C324.732 145.475 321.396 147.864 318.381 150.495C305.151 162.008 297.299 173.977 295.043 186.069L294.724 187.781C291.622 204.516 289.382 216.607 272.021 221.723C256.47 226.308 246.136 235.287 244.383 245.744C242.844 254.917 247.849 264.53 258.859 273.542C272.486 284.713 295.943 299.704 317.626 308.016C349.185 320.111 369.661 312.76 388.306 282.634C402.845 259.14 416.663 248.127 431.794 247.974C440.639 247.871 449.556 242.825 448.537 234.848C448.488 234.468 448.469 232.549 448.421 228.242C448.335 219.921 448.188 205.993 447.628 193.477C446.708 173.01 445.234 169.621 444.642 169.112L444.315 168.875L444.297 168.554C443.794 161.749 436.949 155.049 428.023 152.623C421.482 150.845 415.209 149.022 409.143 147.258C394.543 143.013 381.309 139.167 369.15 137.381C354.1 135.169 340.696 136.112 328.353 143.355ZM513.494 118.025C513.157 126.886 512.604 139.576 511.85 155.741C510.49 184.945 508.781 218.933 507.764 239.242C507.277 248.954 506.92 256.015 506.911 256.55C507.774 264.536 504.315 272.022 497.167 277.637C488.418 284.345 476.103 287.64 462.921 286.8C443.998 285.508 419.375 291.75 396.45 321.785C419.932 292.418 445.174 286.309 464.747 287.682C477.894 288.545 490.187 285.281 498.926 278.605C506.017 273.057 509.447 265.661 508.587 257.782C508.576 257.678 508.573 257.659 509.508 239.602C511.439 202.215 516.529 103.936 516.23 97.9759L516.166 97.9275L516.187 97.5658C516.623 89.1901 512.976 80.5338 505.966 73.3098C498.956 66.0858 489.094 60.8207 478.333 58.5563V58.5563C458.409 54.2703 440.118 49.6346 422.427 45.1518C397.569 38.8511 375.202 33.1862 354.748 30.1814C318.673 24.8817 288.54 27.863 261.123 50.266C254.008 56.1726 247.638 62.619 242.078 69.5362C216.219 101.087 205.364 128.54 197.486 153.504C196.89 155.374 196.309 157.211 195.744 159.015C185.54 191.385 178.571 213.478 139.438 222.878C182.683 214.929 189.487 193.125 199.742 160.239C200.289 158.486 200.847 156.702 201.418 154.888C208.547 131.987 219.298 104.39 244.968 73.3854C250.429 66.6552 256.682 60.3879 263.66 54.6509C283.228 38.8022 305.549 31.9162 333.914 32.9782C359.848 33.9484 388.641 41.2746 421.98 49.758C438.967 54.0805 456.533 58.5511 475.618 62.6892C486.434 65.0228 496.332 70.3372 503.39 77.6009C510.448 84.8646 514.162 93.5594 513.813 101.998L513.8 101.996C513.987 103.095 513.934 106.439 513.494 118.025ZM421.198 55.7448C437.503 59.9117 454.364 64.2203 472.658 68.2197C483.093 70.4849 492.64 75.6152 499.457 82.6212C506.275 89.6271 509.88 98.0125 509.577 106.16C509.792 107.242 509.784 110.497 509.411 121.692C509.123 130.247 508.632 142.488 507.948 158.075C506.706 186.231 505.115 218.975 504.165 238.538C503.712 247.889 503.381 254.683 503.372 255.198C504.217 262.908 500.882 270.138 493.998 275.564C485.57 282.046 473.701 285.246 460.984 284.464C442.743 283.26 418.921 289.372 396.631 318.609C419.472 290.034 443.907 284.058 462.808 285.347C475.491 286.155 487.34 282.985 495.758 276.533C502.585 271.174 505.884 264.034 505.051 256.433C505.037 256.308 505.089 255.222 505.905 238.977C507.719 202.883 512.486 107.909 512.018 102.159L511.934 102.099L511.95 101.737C512.335 93.6517 508.795 85.3064 502.027 78.3407C495.258 71.375 485.75 66.2926 475.372 64.0922C456.242 59.945 438.653 55.4694 421.645 51.1412C397.373 44.9646 375.553 39.4113 355.601 36.4803C320.763 31.3624 291.626 34.2369 265.08 55.7404C258.17 61.4225 251.977 67.6299 246.57 74.2958C221.025 105.151 210.322 132.621 203.224 155.422C202.652 157.237 202.094 159.019 201.55 160.768C191.736 192.232 185.043 213.683 147.156 222.809C189.16 215.138 195.686 193.979 205.551 161.995C206.075 160.293 206.61 158.564 207.156 156.807C213.882 134.858 224.177 108.345 249.46 78.1379C254.772 71.6596 260.848 65.6315 267.624 60.119C286.625 44.8669 308.303 38.2717 335.835 39.3627C342.786 39.665 349.771 40.3444 356.74 41.3959C376.303 44.2694 397.572 49.7062 421.201 55.7453L421.198 55.7448ZM420.432 61.7377C436.054 65.7482 452.206 69.8943 469.706 73.7554C479.748 75.9494 488.934 80.8858 495.51 87.6215C502.085 94.3572 505.589 102.42 505.352 110.269C505.603 111.269 505.646 114.333 505.333 125.363C505.098 133.617 504.665 145.413 504.045 160.421C502.924 187.535 501.451 219.033 500.57 237.852C500.145 246.947 499.838 253.518 499.841 253.86C500.662 261.259 497.465 268.246 490.835 273.491C482.729 279.749 471.306 282.853 459.054 282.128C441.479 281.009 418.449 286.992 396.778 315.481C418.987 287.66 442.636 281.806 460.872 283.011C473.093 283.764 484.499 280.691 492.599 274.463C499.161 269.29 502.332 262.408 501.524 255.084C501.509 254.943 501.596 253.058 502.314 238.276C504.003 203.495 508.452 111.901 507.813 106.346L507.712 106.272L507.726 105.912C508.061 98.1152 504.63 90.078 498.101 83.3686C491.572 76.6592 482.414 71.759 472.414 69.624V69.624C454.077 65.6148 437.194 61.3003 420.869 57.1263C397.18 51.0759 375.898 45.6355 356.45 42.7785C322.848 37.8421 294.711 40.6072 269.033 61.2121C262.328 66.6703 256.314 72.6388 251.058 79.0529C225.906 109.107 215.662 135.49 208.959 157.337C208.411 159.096 207.876 160.825 207.354 162.523C197.931 193.08 191.516 213.89 154.874 222.744L155.108 222.702C195.812 215.247 202.04 194.627 211.468 163.417C211.932 161.877 212.405 160.315 212.888 158.73C219.331 137.606 229.247 112.077 253.955 82.8934C259.114 76.6653 265.011 70.8757 271.584 65.5875C290.029 50.9331 311.057 44.6288 337.757 45.7488C344.356 46.0508 350.985 46.7021 357.601 47.6984C376.672 50.5001 397.393 55.8212 420.436 61.7372L420.432 61.7377ZM419.117 67.6451C434.22 71.5329 449.838 75.5527 466.753 79.2904C476.413 81.4003 485.253 86.1431 491.591 92.6162C497.929 99.0893 501.322 106.841 501.124 114.396C501.403 115.334 501.503 118.241 501.25 129.036C501.067 136.991 500.692 148.344 500.139 162.78C499.139 188.856 497.782 219.107 496.97 237.182C496.581 245.876 496.299 252.157 496.305 252.507C497.1 259.632 494.035 266.361 487.67 271.418C479.885 277.452 468.909 280.462 457.122 279.794C440.211 278.759 417.962 284.624 396.904 312.378C418.493 285.284 441.359 279.556 458.935 280.674C470.689 281.371 481.647 278.393 489.425 272.39C495.726 267.406 498.765 260.782 497.985 253.734C497.969 253.578 498.056 251.616 498.711 237.592C500.279 204.114 504.404 115.891 503.596 110.53L503.479 110.443L503.491 110.086C503.776 102.58 500.453 94.8526 494.165 88.4007C487.878 81.9487 479.073 77.2308 469.455 75.1602V75.1602C451.912 71.2907 435.739 67.1375 420.097 63.1208C396.992 57.189 376.251 51.8636 357.302 49.0798C324.937 44.3251 297.796 46.9836 272.991 66.6886C266.488 71.9224 260.653 77.6524 255.548 83.8159C230.972 112.844 221.106 138.242 214.697 159.259C214.214 160.843 213.74 162.404 213.277 163.941C204.259 193.8 198.127 214.098 162.509 222.703C162.806 222.644 163.103 222.59 163.401 222.534C202.368 215.266 208.304 195.321 217.288 165.127C217.725 163.659 218.17 162.168 218.622 160.655C224.297 141.765 233.951 116.397 258.446 87.6535C263.466 81.6838 269.185 76.1334 275.543 71.0612C293.378 57.0455 313.689 51.0437 339.461 52.1701C345.736 52.4679 352.039 53.0922 358.328 54.0389C376.784 56.746 396.824 61.9045 419.119 67.6445L419.117 67.6451ZM418.289 73.6288C432.727 77.3644 447.656 81.2266 463.799 84.8244C473.09 86.8738 481.587 91.444 487.684 97.6716C493.782 103.899 497.059 111.353 496.895 118.625C497.362 120.327 497.555 127.696 496.239 165.108C495.36 190.134 494.119 219.139 493.379 236.47C493.023 244.785 492.767 250.794 492.776 251.151C493.544 258.002 490.609 264.475 484.511 269.345C477.047 275.154 466.517 278.069 455.196 277.458C438.961 276.51 417.523 282.236 397.089 309.196C418.041 282.902 440.103 277.303 457.003 278.339C468.292 278.979 478.805 276.097 486.262 270.319C492.3 265.522 495.208 259.153 494.454 252.385C494.436 252.214 494.522 250.189 495.117 236.923C496.561 204.747 500.366 119.887 499.387 114.716L499.252 114.618L499.263 114.26C499.485 107.045 496.265 99.6316 490.22 93.439C484.175 87.2464 475.729 82.709 466.496 80.6944C449.541 76.9471 433.902 72.9222 418.777 69.0287C396.408 63.2712 376.341 58.1048 358.009 55.4116C326.939 50.8473 300.845 53.3819 276.946 72.1636C270.658 77.1822 265 82.6731 260.034 88.5784C235.68 117.159 226.078 142.387 220.436 161.172C219.981 162.687 219.536 164.178 219.101 165.645C214.66 180.568 210.825 193.457 203.198 203.314C195.859 212.794 185.188 219.036 169.884 222.718C170.485 222.595 171.088 222.477 171.693 222.362C208.928 215.28 214.57 196.008 223.11 166.835C223.518 165.434 223.935 164.013 224.361 162.57C229.686 144.552 238.88 120.29 262.943 92.4026C267.814 86.6862 273.355 81.3753 279.508 76.5263C296.777 63.114 316.431 57.4032 341.362 58.5574C347.289 58.8526 353.241 59.4485 359.18 60.3412C377.121 62.9774 396.603 68.0178 418.293 73.6289L418.289 73.6288ZM417.469 79.6137C431.237 83.1945 445.477 86.8984 460.845 90.3581C469.74 92.3419 477.873 96.7207 483.728 102.679C489.582 108.636 492.759 115.767 492.666 122.74C493.18 124.304 493.484 131.172 492.335 167.481C491.575 191.477 490.449 219.235 489.779 235.821C489.462 243.726 489.229 249.434 489.239 249.793C489.981 256.37 487.178 262.586 481.344 267.268C474.203 272.854 464.121 275.673 453.266 275.12C439.281 274.343 426.036 278.858 413.897 288.542C407.543 293.752 402 299.552 397.36 305.848C401.747 300.223 406.867 295.016 412.652 290.297C425.641 279.925 439.911 275.113 455.065 276.001C465.889 276.585 475.958 273.8 483.095 268.246C488.871 263.638 491.647 257.523 490.917 251.032C490.897 250.836 491.005 248.237 491.519 236.21C492.838 205.345 496.32 123.89 495.173 118.899L495.022 118.788L495.032 118.43C495.201 111.504 492.089 104.402 486.285 98.4672C480.481 92.5323 472.388 88.1768 463.538 86.2251C447.355 82.6164 432.405 78.7491 417.949 75.0092C396.182 69.3782 376.664 64.3268 358.845 61.7091C329.014 57.3266 303.93 59.7505 280.906 77.6321C274.822 82.4275 269.344 87.68 264.528 93.3338C240.61 121.055 231.466 145.172 226.173 163.087C225.748 164.53 225.331 165.95 224.922 167.348C220.704 181.761 217.06 194.212 209.778 203.753C202.591 213.171 192.044 219.297 176.808 222.846C177.859 222.616 178.918 222.398 179.986 222.191C215.491 215.296 220.836 196.698 228.931 168.543C229.313 167.213 229.702 165.862 230.1 164.49C234.69 148.667 243.556 124.47 267.44 97.1569C272.16 91.6919 277.523 86.6197 283.472 81.9945C300.175 69.1825 319.177 63.7657 343.267 64.9476C348.844 65.2396 354.443 65.8068 360.03 66.6458C377.462 69.2093 396.386 74.1313 417.472 79.6157L417.469 79.6137ZM322.139 301.905C301.827 293.915 280.259 280.088 267.897 269.929C257.428 261.336 252.608 252.137 253.963 243.32C255.487 233.402 265.01 224.753 279.438 220.182C294.24 215.492 296.105 204.421 298.683 189.097L298.939 187.586C300.868 176.195 308.434 164.956 321.427 154.18C324.36 151.748 327.591 149.548 331.084 147.604C352.978 135.375 377.742 142.724 409.094 152.026C414.361 153.59 419.809 155.205 425.445 156.788C434.246 159.259 441.112 165.874 441.892 172.59C444.561 175.645 445.963 191.893 446.694 227.8C446.756 230.829 446.803 233.22 446.848 233.561C447.915 241.753 439.204 246.877 430.162 247.098C417.218 247.393 404.834 257.242 391.188 278.097C381.826 292.403 372.655 300.904 362.326 304.851C355.664 307.412 347.826 308.119 339.931 306.87C333.842 305.901 327.843 304.227 322.139 301.905V301.905ZM332.298 148.835C328.884 150.734 325.726 152.885 322.86 155.263C310.093 165.85 302.664 176.859 300.781 187.98L300.525 189.491C297.877 205.227 295.962 216.596 280.335 221.548C266.433 225.952 257.262 234.232 255.808 243.697C254.526 252.038 259.138 260.788 269.148 269C281.377 279.049 302.699 292.722 322.769 300.617C329.019 303.075 334.787 304.719 340.172 305.51C360.163 308.447 374.881 299.643 389.51 277.288C403.438 256.005 416.253 245.947 429.842 245.639C438.045 245.437 445.959 240.842 445 233.5C444.95 233.113 444.914 231.416 444.837 227.613C444.691 220.489 444.423 207.228 443.733 195.693C442.577 176.335 440.902 173.65 440.416 173.29L440.105 173.057L440.069 172.736C439.49 166.566 433.179 160.432 425.055 158.154C419.402 156.569 413.947 154.949 408.668 153.383C394.487 149.175 381.67 145.372 369.909 143.644C356.095 141.616 343.736 142.446 332.298 148.834L332.298 148.835ZM327.266 294.498C308.6 286.945 289.167 274.432 278.189 265.387C268.729 257.601 264.302 249.268 265.392 241.292C266.61 232.372 274.955 224.419 287.715 220.02C300.811 215.506 302.351 205.158 304.482 190.834L304.678 189.518C306.244 179.049 313.397 168.758 325.938 158.929C328.724 156.75 331.778 154.79 335.066 153.07C355.84 142.124 379.193 149.221 408.758 158.209C413.198 159.558 417.788 160.954 422.502 162.326C430.604 164.683 436.791 170.586 437.658 176.745C440.44 179.74 442.084 194.988 443.119 227.164C443.207 229.891 443.27 231.861 443.315 232.209C444.313 239.65 436.442 244.436 428.25 244.762C416.801 245.198 405.401 254.098 392.377 272.778C379.391 291.401 366.15 302.618 344.572 299.45C339.331 298.68 333.602 297.063 327.266 294.498ZM336.245 154.317C333.038 155.995 330.059 157.908 327.341 160.033C315.051 169.665 308.046 179.71 306.524 189.889L306.328 191.205C304.218 205.383 302.552 216.58 288.657 221.371C276.405 225.596 268.398 233.176 267.243 241.651C266.217 249.161 270.437 257.05 279.446 264.463C290.294 273.403 309.487 285.761 327.922 293.221C342.553 299.141 354.062 300.088 364.146 296.202C373.283 292.68 381.479 285.198 390.724 271.943C404.212 252.602 415.677 243.77 427.899 243.306C435.265 243.01 442.359 238.761 441.474 232.153C441.423 231.764 441.371 230.203 441.267 226.992C441.061 220.561 440.677 208.59 439.859 198.077C438.529 180.916 436.851 177.944 436.191 177.462L435.879 177.234L435.844 176.921C435.187 171.293 429.531 165.85 422.091 163.685C417.362 162.31 412.764 160.911 408.316 159.558C394.502 155.359 382.064 151.577 370.664 149.902C358.082 148.056 346.764 148.773 336.241 154.316L336.245 154.317ZM332.388 287.092C315.394 279.995 298.09 268.797 288.479 260.848C280.029 253.871 275.997 246.41 276.822 239.271C277.746 231.225 284.733 224.152 295.986 219.862C307.383 215.517 308.595 205.9 310.273 192.588L310.418 191.451C311.648 181.733 318.202 172.648 330.451 163.675C333.09 161.751 335.965 160.03 339.047 158.532C358.75 148.862 381.852 156.093 408.601 164.468C412.151 165.58 415.823 166.73 419.561 167.865C426.817 170.068 432.468 175.398 433.417 180.895C436.353 183.826 438.198 197.619 439.549 226.543C439.656 228.843 439.733 230.505 439.782 230.856C440.706 237.547 433.671 241.993 426.336 242.426C416.234 242.999 406.127 250.721 393.563 267.461C380.328 285.094 368.364 294.872 349.249 292.064C344.185 291.32 338.614 289.691 332.385 287.091L332.388 287.092ZM340.184 159.801C337.184 161.259 334.385 162.934 331.817 164.807C319.847 173.57 313.451 182.399 312.261 191.798L312.118 192.934C310.456 206.132 309.143 216.556 296.979 221.192C286.217 225.294 279.544 232.005 278.669 239.605C277.9 246.286 281.725 253.312 289.733 259.924C299.218 267.769 316.294 278.82 333.064 285.824C346.807 291.562 357.571 292.535 366.941 288.887C375.116 285.703 382.589 279.036 391.927 266.594C404.773 249.48 415.262 241.578 425.938 240.971C432.469 240.584 438.748 236.677 437.938 230.807C437.881 230.402 437.81 228.89 437.694 226.388C437.427 220.658 436.928 209.992 435.99 200.506C434.458 185.008 432.661 182.146 431.96 181.635L431.658 181.414L431.613 181.111C430.888 176.123 425.75 171.23 419.119 169.217C415.37 168.079 411.694 166.928 408.139 165.815C394.617 161.581 382.493 157.786 371.404 156.157C360.053 154.488 349.784 155.086 340.181 159.799L340.184 159.801ZM337.509 279.684C322.224 273.071 307.037 263.177 298.768 256.305C291.337 250.142 287.701 243.554 288.253 237.252C288.868 230.211 294.699 223.818 304.246 219.705C313.953 215.524 314.834 206.649 316.051 194.366L316.148 193.383C317.032 184.528 323.186 176.362 334.963 168.416C337.455 166.747 340.154 165.267 343.029 163.992C361.739 155.584 383.516 162.662 408.732 170.856C411.32 171.698 413.949 172.552 416.624 173.405C423.141 175.487 428.146 180.143 429.178 185.049C433.103 188.797 434.882 208.793 435.995 225.947C436.115 227.811 436.202 229.156 436.252 229.504C437.026 234.914 431.945 239.463 424.432 240.088C415.698 240.791 406.821 247.388 394.747 262.149C386.567 272.149 379.353 279.505 370.741 282.903C365.699 284.94 359.709 285.531 353.665 284.588C348.749 283.864 343.407 282.234 337.506 279.682L337.509 279.684ZM344.119 165.284C341.327 166.523 338.707 167.961 336.286 169.581C324.833 177.308 318.852 185.199 318.003 193.703L317.904 194.686C316.694 206.884 315.738 216.517 305.312 221.008C296.226 224.921 290.681 230.955 290.104 237.558C289.59 243.411 293.021 249.576 300.024 255.384C308.172 262.156 323.139 271.905 338.212 278.425C364.042 289.599 376.032 282.153 393.14 261.239C405.491 246.143 414.71 239.382 423.978 238.637C429.6 238.17 435.168 234.794 434.404 229.459C434.346 229.065 434.268 227.841 434.136 225.811C432.541 201.201 430.386 187.741 427.729 185.807L427.44 185.596L427.39 185.305C426.599 180.949 421.974 176.608 416.148 174.747C413.473 173.892 410.836 173.036 408.245 172.194C395.346 168.003 383.366 164.108 372.303 162.483C362.129 160.987 352.734 161.411 344.116 165.284L344.119 165.284ZM342.629 272.274C330.912 266.997 317.42 258.754 309.055 251.762C302.651 246.419 299.411 240.706 299.69 235.242C299.999 229.203 304.668 223.487 312.5 219.557C320.527 215.526 321.102 206.996 321.828 196.198L321.888 195.323C322.431 187.288 328.19 180.036 339.49 173.159C341.836 171.745 344.357 170.506 347.028 169.453C364.87 162.291 385.486 169.326 409.358 177.473C410.791 177.962 412.237 178.454 413.694 178.949C419.354 180.869 423.831 184.966 424.933 189.203C429.091 192.912 431.137 210.427 432.456 225.388C432.581 226.799 432.671 227.819 432.721 228.154C433.534 233.598 428.213 237.103 422.533 237.752C415.185 238.571 407.478 244.101 395.927 256.841C383.343 270.719 374.215 279.57 358.322 277.236C353.732 276.559 348.585 274.956 342.626 272.272L342.629 272.274ZM348.048 170.771C345.464 171.79 343.024 172.989 340.752 174.355C329.824 181.01 324.262 187.961 323.744 195.605L323.683 196.478C322.932 207.641 322.34 216.458 313.652 220.819C306.247 224.535 301.835 229.89 301.547 235.509C301.285 240.614 304.238 245.774 310.321 250.85C318.546 257.725 331.827 265.835 343.368 271.034C368.647 282.418 378.238 273.669 394.361 255.887C406.181 242.851 414.193 237.178 422.015 236.307C426.942 235.744 431.568 232.749 430.876 228.118C430.821 227.747 430.733 226.766 430.602 225.28C428.719 203.917 426.331 192.043 423.504 189.983L423.231 189.783L423.167 189.508C422.301 185.722 418.281 182.012 413.172 180.279C411.713 179.783 410.265 179.29 408.83 178.8C395.902 174.387 383.947 170.308 372.95 168.692C364.018 167.375 355.719 167.689 348.045 170.769L348.048 170.771ZM347.743 264.862C337.437 259.997 326.289 253.071 319.344 247.22C313.893 242.636 311.129 237.93 311.133 233.233C311.139 228.114 314.551 223.206 320.738 219.416C327.104 215.519 327.323 207.829 327.599 198.093L327.622 197.261C327.831 190.101 333.346 183.583 344.018 177.891C346.218 176.736 348.561 175.738 351.024 174.907C368.27 168.957 388.909 176.503 410.762 184.491C415.642 186.275 419.497 189.73 420.68 193.348C425.18 197.145 427.55 213.124 428.95 224.91C429.059 225.839 429.139 226.497 429.185 226.799C429.847 230.977 426.334 234.52 420.642 235.409C414.701 236.319 408.101 240.84 397.095 251.534C396.262 252.344 395.449 253.139 394.656 253.918C384.184 264.176 376.422 271.778 362.62 269.751C358.331 269.119 353.459 267.558 347.741 264.86L347.743 264.862ZM351.967 176.257C349.589 177.057 347.328 178.02 345.205 179.136C334.966 184.598 329.676 190.777 329.48 197.501L329.456 198.333C329.169 208.407 328.942 216.368 322.005 220.614C316.197 224.173 312.995 228.727 312.99 233.443C312.984 237.722 315.549 242.051 320.614 246.309C327.426 252.049 338.379 258.851 348.519 263.636C371.239 274.362 379.019 266.74 393.14 252.908C393.937 252.129 394.751 251.334 395.583 250.522C406.983 239.441 413.606 234.956 420.035 233.975C424.886 233.215 427.891 230.251 427.339 226.769C427.29 226.459 427.21 225.787 427.097 224.835C424.943 206.689 422.312 196.365 419.272 194.149L419.017 193.964L418.942 193.712C418.015 190.554 414.496 187.373 410.182 185.797C396.927 180.95 384.741 176.496 373.577 174.856C365.896 173.728 358.699 173.932 351.964 176.256L351.967 176.257ZM352.854 257.449C344.071 253.061 335.171 247.401 329.627 242.677C323.124 237.152 321.945 232.215 322.101 229.047C322.226 227.032 322.899 225.122 324.078 223.442C325.256 221.761 326.913 220.349 328.941 219.296C332.827 214.305 333.523 207.652 333.36 199.21C333.238 192.758 338.351 187.178 348.562 182.626C350.614 181.728 352.779 180.971 355.036 180.364C370.713 176.007 388.961 182.454 407.841 190.042C411.911 191.677 415.174 194.516 416.421 197.495C420.076 200.427 423.135 209.545 425.516 224.607C425.573 224.974 425.618 225.256 425.649 225.443C426.253 228.989 423.487 232.052 418.764 233.065C413.57 234.18 407.548 238.554 398.253 246.239C396.172 247.959 394.287 249.618 392.465 251.221C384.182 258.51 377.947 263.995 367.127 262.405C363.112 261.813 358.467 260.25 352.853 257.446L352.854 257.449ZM355.87 181.746C353.699 182.328 351.618 183.054 349.644 183.917C339.958 188.236 335.103 193.443 335.212 199.394C335.379 208.131 334.637 215.03 330.471 220.292L330.385 220.401L330.248 220.473C328.386 221.414 326.861 222.69 325.776 224.213C324.691 225.737 324.07 227.474 323.955 229.309C323.751 233.426 326.152 237.738 330.903 241.77C336.239 246.319 345.179 251.999 353.676 256.245C373.072 265.935 379.821 259.999 390.999 250.162C392.827 248.552 394.719 246.887 396.818 245.153C406.515 237.137 412.464 232.846 418.039 231.648C421.318 230.945 424.372 228.747 423.805 225.424C423.773 225.233 423.727 224.946 423.669 224.574C420.566 204.941 416.93 199.699 415.04 198.321L414.817 198.158L414.731 197.936C413.735 195.356 410.775 192.758 407.19 191.317C395.771 186.729 384.599 182.563 374.188 181.034C367.752 180.089 361.606 180.152 355.87 181.746ZM357.957 250.026C350.845 246.207 344.098 241.758 339.912 238.128C331.08 230.496 332.271 223.012 337.137 219.22C339.087 214.557 339.711 208.813 339.101 201.161C338.635 195.347 343.355 190.705 353.127 187.352C355.033 186.714 357.021 186.201 359.072 185.817C370.682 183.535 385.256 186.643 404.938 195.594C408.059 196.97 410.614 199.107 412.152 201.627C418.791 206.722 421.985 223.368 422.119 224.081C422.671 227.014 420.678 229.554 416.915 230.704C413.034 231.893 408.23 235.083 400.949 239.914L399.394 240.946C396.175 243.08 393.439 245.279 391.025 247.219C384.638 252.354 379.748 256.285 371.478 255.07C367.784 254.528 363.424 252.963 357.957 250.026ZM359.757 187.237C357.793 187.604 355.89 188.095 354.065 188.704C344.946 191.83 340.533 196.062 340.952 201.28C341.584 209.193 340.915 215.14 338.847 219.993L338.787 220.135L338.654 220.237C334.253 223.56 333.175 230.298 341.206 237.235C345.281 240.767 351.876 245.113 358.85 248.856C375.25 257.665 380.654 253.322 389.607 246.124C392.043 244.164 394.806 241.942 398.08 239.772L399.636 238.741C407.028 233.835 411.914 230.592 416.031 229.331C419.085 228.395 420.716 226.384 420.281 224.082C419.391 219.346 415.956 206.236 410.817 202.49L410.637 202.358L410.543 202.183C409.48 200.18 407.047 198.127 404.19 196.828C392.594 191.554 382.851 188.352 374.503 187.125C369.481 186.323 364.453 186.361 359.757 187.236L359.757 187.237ZM363.045 242.6C357.734 239.441 353.168 236.238 350.188 233.58C344.819 228.799 343.01 223.455 345.332 219.251C345.353 218.695 345.376 218.132 345.401 217.563C345.735 212.806 345.547 207.977 344.839 203.128C344.021 198.013 348.596 194.091 357.721 192.083C359.478 191.709 361.286 191.439 363.131 191.275C374.267 190.213 388.453 193.818 402.052 201.166C404.34 202.402 406.056 204.044 407.571 205.494L407.842 205.753C413.278 210.939 417.948 219.807 418.578 222.716C419.073 225.009 417.803 227.055 415.091 228.327C413.817 228.92 412.265 229.729 410.469 230.667C407.857 232.032 404.607 233.73 400.486 235.67C396.132 237.721 392.935 240.134 390.113 242.262C385.491 245.75 381.705 248.605 375.477 247.69C372.185 247.206 368.204 245.665 363.047 242.6L363.045 242.6ZM363.614 192.724C361.855 192.879 360.132 193.137 358.456 193.493C352.588 194.783 345.784 197.509 346.687 203.154C347.409 208.08 347.601 212.986 347.262 217.819C347.237 218.431 347.212 219.035 347.189 219.632L347.182 219.765L347.114 219.882C344.994 223.578 346.635 228.372 351.504 232.706C354.387 235.279 358.833 238.396 364.023 241.482C377.591 249.547 381.785 246.384 388.732 241.141C391.61 238.969 394.874 236.507 399.371 234.389C403.461 232.462 406.695 230.773 409.294 229.416C411.107 228.468 412.675 227.65 413.981 227.043C416.142 226.027 417.124 224.505 416.745 222.754C416.148 219.993 411.686 211.545 406.478 206.579L406.205 206.317C404.786 204.96 403.178 203.422 401.156 202.329C392.22 197.5 383.051 194.334 374.746 193.114C371 192.537 367.246 192.406 363.614 192.724ZM368.109 235.147C360.019 229.466 355.701 224.772 353.666 219.446C352.789 216.909 352.199 214.347 351.904 211.792C351.58 209.698 351.246 207.533 350.59 205.109C350.322 204.203 350.306 203.291 350.542 202.437C350.777 201.583 351.259 200.807 351.954 200.166C354.483 197.743 360.056 196.495 367.238 196.74C376.231 197.05 389.351 199.845 399.21 206.769C410.476 214.683 415.738 219.131 415.155 223.015C414.695 226.056 410.616 228.264 401.509 230.396C395.96 231.695 392.582 234.235 389.605 236.476C386.368 238.907 383.548 241.028 379.093 240.374C376.263 239.96 372.779 238.428 368.109 235.147ZM367.424 198.197C360.767 197.968 355.675 199.056 353.455 201.182C352.919 201.679 352.547 202.279 352.366 202.94C352.185 203.6 352.199 204.306 352.407 205.006C353.077 207.497 353.418 209.696 353.745 211.821C354.03 214.289 354.596 216.765 355.437 219.218C357.348 224.218 361.473 228.675 369.227 234.121C379.893 241.609 383.025 239.254 388.216 235.351C391.167 233.132 394.839 230.372 400.747 228.988C408.951 227.067 412.941 225.049 413.304 222.639C413.781 219.473 408.324 214.977 398.084 207.788C390.839 202.699 381.727 199.941 373.973 198.802C371.79 198.479 369.603 198.278 367.428 198.2L367.424 198.197Z" fill="url(#paint0_linear_258_3835)"/>
<defs>
<linearGradient id="paint0_linear_258_3835" x1="646.875" y1="404.817" x2="-123.662" y2="80.1254" gradientUnits="userSpaceOnUse">
<stop stop-color="#42C3AA"/>
<stop offset="1" stop-color="#0C5144"/>
</linearGradient>
</defs>
</svg>
