<svg width="18" height="18" viewBox="0 0 18 18" fill="none" xmlns="http://www.w3.org/2000/svg">
<path opacity="0.48" d="M10.9906 8.29732H15.3644C15.665 8.29732 15.9087 8.05365 15.9087 7.75306C15.9087 5.03687 13.7067 2.83496 10.9906 2.83496C10.69 2.83496 10.4463 3.07864 10.4463 3.37923V7.75306C10.4463 8.05365 10.69 8.29732 10.9906 8.29732Z" fill="#FAFAFA"/>
<path d="M15.3051 9.39258H9.96079C9.80253 9.39258 9.65075 9.32971 9.53884 9.2178C9.42693 9.1059 9.36406 8.95412 9.36406 8.79585V3.43841C9.36508 3.26637 9.2926 3.10208 9.16485 2.98685C9.03709 2.87162 8.86622 2.81642 8.6952 2.83512C5.27217 3.19859 2.71286 6.14698 2.83422 9.58711C2.95558 13.0272 5.71629 15.7879 9.15642 15.9093C12.5966 16.0307 15.5449 13.4714 15.9084 10.0483C15.9231 9.87945 15.8662 9.71216 15.7514 9.5874C15.6366 9.46265 15.4746 9.39194 15.3051 9.39258Z" fill="#FAFAFA"/>
</svg>
