<svg width="18" height="18" viewBox="0 0 18 18" fill="none" xmlns="http://www.w3.org/2000/svg">
<path fill-rule="evenodd" clip-rule="evenodd" d="M7.76883 4.22465C8.17826 3.55468 9.1513 3.55468 9.56072 4.22465L11.1729 6.86272C11.6005 7.56239 11.0969 8.46024 10.2769 8.46024H7.05262C6.23265 8.46024 5.7291 7.56239 6.15668 6.86272L7.76883 4.22465ZM12.1487 15.4287C13.7231 15.4287 14.9995 14.1523 14.9995 12.5778C14.9995 11.0033 13.7231 9.72697 12.1487 9.72697C10.5742 9.72697 9.29783 11.0033 9.29783 12.5778C9.29783 14.1523 10.5742 15.4287 12.1487 15.4287Z" fill="#FAFAFA"/>
<path opacity="0.48" d="M2.96289 11.5439C2.96289 10.7155 3.63446 10.0439 4.46289 10.0439H6.53106C7.35948 10.0439 8.03106 10.7155 8.03106 11.5439V13.6121C8.03106 14.4405 7.35948 15.1121 6.53106 15.1121H4.46289C3.63446 15.1121 2.96289 14.4405 2.96289 13.6121V11.5439Z" fill="#FAFAFA"/>
</svg>
